<?xml version="1.0" encoding="utf-8"?>
<!-- Generator: Adobe Illustrator 16.0.0, SVG Export Plug-In . SVG Version: 6.00 Build 0)  -->
<!DOCTYPE svg PUBLIC "-//W3C//DTD SVG 1.1//EN" "http://www.w3.org/Graphics/SVG/1.1/DTD/svg11.dtd">
<svg version="1.1"
	 id="svg2" sodipodi:docname="transport_slipway.svg" inkscape:version="0.48.0 r9654" sodipodi:version="0.32" inkscape:output_extension="org.inkscape.output.svg.inkscape" xmlns:dc="http://purl.org/dc/elements/1.1/" xmlns:cc="http://creativecommons.org/ns#" xmlns:rdf="http://www.w3.org/1999/02/22-rdf-syntax-ns#" xmlns:svg="http://www.w3.org/2000/svg" xmlns:sodipodi="http://sodipodi.sourceforge.net/DTD/sodipodi-0.dtd" xmlns:inkscape="http://www.inkscape.org/namespaces/inkscape"
	 xmlns="http://www.w3.org/2000/svg" xmlns:xlink="http://www.w3.org/1999/xlink" x="0px" y="0px" width="580px" height="580px"
	 viewBox="0 0 580 580" enable-background="new 0 0 580 580" xml:space="preserve">
<path id="path5679" inkscape:connector-curvature="0" d="M121.529,132.231l100.566,27.378l55.844-38.74l19.4,4.653l-55.299,38.861
	l304.782,83.584l-22.301,81.831l-305.93-83.402c-118.517-35.235-96.94-114.286-96.94-114.286"/>
<path id="path5681" inkscape:connector-curvature="0" d="M385.879,341.523c-0.363-6.829-1.632-13.356-3.868-19.521l137.916,38.438
	l-4.412,16.922L385.879,341.523L385.879,341.523z"/>
<path id="path5683" inkscape:connector-curvature="0" d="M260.654,306.894c3.747-5.439,8.159-10.335,13.175-14.505L43.747,228.87
	v18.252L260.654,306.894z"/>
<path id="path5685" inkscape:connector-curvature="0" d="M317.525,367.391c12.389,0,22.422-9.973,22.422-22.361
	c0-12.39-10.033-22.423-22.422-22.423c-12.391,0-22.422,10.033-22.422,22.423C295.104,357.418,305.135,367.391,317.525,367.391z
	 M542.107,504.823c-10.939,0-21.334-2.478-30.581-6.648c-9.609-4.411-20.367-7.011-31.608-7.011s-21.999,2.6-31.487,7.011
	c-9.368,4.171-19.763,6.648-30.702,6.648s-21.334-2.478-30.701-6.648c-9.549-4.411-20.307-7.011-31.488-7.011
	c-11.301,0-21.998,2.6-31.607,7.011c-9.247,4.171-19.764,6.648-30.642,6.648c-10.879,0-21.334-2.478-30.642-6.648
	c-9.609-4.411-20.428-7.011-31.608-7.011s-21.999,2.6-31.487,7.011c-9.307,4.171-19.823,6.648-30.702,6.648
	c-10.878,0-21.334-2.478-30.702-6.648c-9.488-4.411-20.307-7.011-31.487-7.011s-21.999,2.6-31.548,7.011
	c-9.307,4.171-19.823,6.648-30.642,6.648l-0.725-182.64l251.598,69.321c-17.345-8.401-29.372-25.988-29.372-46.476
	c0-28.587,23.147-51.674,51.673-51.674c28.526,0,51.673,23.147,51.673,51.674c0,28.525-23.207,51.673-51.673,51.673
	c-1.692,0-3.444-0.362-5.077-0.544l229.297,63.217L542.107,504.823L542.107,504.823z"/>
</svg>
