<?xml version="1.0" encoding="utf-8"?>
<!-- Generator: Adobe Illustrator 16.0.0, SVG Export Plug-In . SVG Version: 6.00 Build 0)  -->
<!DOCTYPE svg PUBLIC "-//W3C//DTD SVG 1.0//EN" "http://www.w3.org/TR/2001/REC-SVG-20010904/DTD/svg10.dtd">
<svg version="1.0" id="Svg" xmlns="http://www.w3.org/2000/svg" xmlns:xlink="http://www.w3.org/1999/xlink" x="0px" y="0px"
	 width="256px" height="256px" viewBox="0 0 256 256" enable-background="new 0 0 256 256" xml:space="preserve">
<g>
	<defs>
		<rect id="SVGID_1_" width="256" height="256"/>
	</defs>
	<clipPath id="SVGID_2_">
		<use xlink:href="#SVGID_1_"  overflow="visible"/>
	</clipPath>
	<g id="Pattern" clip-path="url(#SVGID_2_)">
		<g>
			<g id="Si7gupcxiwq" transform="matrix(1,0,0,1,0,0)">
				<g>
					<path d="M32,20h1v5h-1V20z"/>
					<path d="M32.5,15c1.381,0,2.5,1.343,2.5,3s-1.119,3-2.5,3v-1c0.829,0,1.5-0.896,1.5-2s-0.671-2-1.5-2S31,16.896,31,18
						s0.671,2,1.5,2v1c-1.381,0-2.5-1.343-2.5-3S31.119,15,32.5,15z"/>
				</g>
			</g>
		</g>
		<g>
			<g id="Si7gupcxiwq_1_" transform="matrix(1,0,0,1,0,0)">
				<g>
					<path d="M288,20h1v5h-1V20z"/>
					<path d="M288.5,15c1.381,0,2.5,1.343,2.5,3s-1.119,3-2.5,3v-1c0.828,0,1.5-0.896,1.5-2s-0.672-2-1.5-2s-1.5,0.896-1.5,2
						s0.672,2,1.5,2v1c-1.381,0-2.5-1.343-2.5-3S287.119,15,288.5,15z"/>
				</g>
			</g>
		</g>
		<g>
			<g id="Si7gupcxiwq_2_" transform="matrix(1,0,0,1,0,0)">
				<g>
					<path d="M288,276h1v5h-1V276z"/>
					<path d="M288.5,271c1.381,0,2.5,1.344,2.5,3s-1.119,3-2.5,3v-1c0.828,0,1.5-0.896,1.5-2s-0.672-2-1.5-2s-1.5,0.896-1.5,2
						s0.672,2,1.5,2v1c-1.381,0-2.5-1.344-2.5-3S287.119,271,288.5,271z"/>
				</g>
			</g>
		</g>
		<g>
			<g id="Si7gupcxiwq_3_" transform="matrix(1,0,0,1,0,0)">
				<g>
					<path d="M32,276h1v5h-1V276z"/>
					<path d="M32.5,271c1.381,0,2.5,1.344,2.5,3s-1.119,3-2.5,3v-1c0.829,0,1.5-0.896,1.5-2s-0.671-2-1.5-2s-1.5,0.896-1.5,2
						s0.671,2,1.5,2v1c-1.381,0-2.5-1.344-2.5-3S31.119,271,32.5,271z"/>
				</g>
			</g>
		</g>
		<g>
			<g id="Si7gupcxiwq_4_" transform="matrix(1,0,0,1,0,0)">
				<g>
					<path d="M288,276h1v5h-1V276z"/>
					<path d="M288.5,271c1.381,0,2.5,1.344,2.5,3s-1.119,3-2.5,3v-1c0.828,0,1.5-0.896,1.5-2s-0.672-2-1.5-2s-1.5,0.896-1.5,2
						s0.672,2,1.5,2v1c-1.381,0-2.5-1.344-2.5-3S287.119,271,288.5,271z"/>
				</g>
			</g>
		</g>
		<g>
			<g id="Si7gupcxiwp" transform="matrix(1,0,0,1,0,0)">
				<g>
					<path d="M54,4l-2,6v1h2v3h1v-3h2v-1l-2-6H54z M54.5,5l1.5,5h-3L54.5,5z"/>
				</g>
			</g>
		</g>
		<g>
			<g id="Si7gupcxiwp_1_" transform="matrix(1,0,0,1,0,0)">
				<g>
					<path d="M54,260l-2,6v1h2v3h1v-3h2v-1l-2-6H54z M54.5,261l1.5,5h-3L54.5,261z"/>
				</g>
			</g>
		</g>
		<g>
			<g id="Si7gupcxiwq_5_" transform="matrix(1,0,0,1,0,0)">
				<g>
					<path d="M63,14h1v5h-1V14z"/>
					<path d="M63.5,9c1.381,0,2.5,1.343,2.5,3s-1.119,3-2.5,3v-1c0.829,0,1.5-0.896,1.5-2s-0.671-2-1.5-2S62,10.896,62,12
						s0.671,2,1.5,2v1c-1.381,0-2.5-1.343-2.5-3S62.119,9,63.5,9z"/>
				</g>
			</g>
		</g>
		<g>
			<g id="Si7gupcxiwq_6_" transform="matrix(1,0,0,1,0,0)">
				<g>
					<path d="M63,270h1v5h-1V270z"/>
					<path d="M63.5,265c1.381,0,2.5,1.344,2.5,3s-1.119,3-2.5,3v-1c0.829,0,1.5-0.896,1.5-2s-0.671-2-1.5-2s-1.5,0.896-1.5,2
						s0.671,2,1.5,2v1c-1.381,0-2.5-1.344-2.5-3S62.119,265,63.5,265z"/>
				</g>
			</g>
		</g>
		<g>
			<g id="Si7gupcxiwp_2_" transform="matrix(1,0,0,1,0,0)">
				<g>
					<path d="M82,18l-2,6v1h2v3h1v-3h2v-1l-2-6H82z M82.5,19l1.5,5h-3L82.5,19z"/>
				</g>
			</g>
		</g>
		<g>
			<g id="Si7gupcxiwp_3_" transform="matrix(1,0,0,1,0,0)">
				<g>
					<path d="M82,274l-2,6v1h2v3h1v-3h2v-1l-2-6H82z M82.5,275l1.5,5h-3L82.5,275z"/>
				</g>
			</g>
		</g>
		<g>
			<g id="Si7gupcxiwp_4_" transform="matrix(1,0,0,1,0,0)">
				<g>
					<path d="M107,11l-2,6v1h2v3h1v-3h2v-1l-2-6H107z M107.5,12l1.5,5h-3L107.5,12z"/>
				</g>
			</g>
		</g>
		<g>
			<g id="Si7gupcxiwp_5_" transform="matrix(1,0,0,1,0,0)">
				<g>
					<path d="M107,267l-2,6v1h2v3h1v-3h2v-1l-2-6H107z M107.5,268l1.5,5h-3L107.5,268z"/>
				</g>
			</g>
		</g>
		<g>
			<g id="Si7gupcxiwp_6_" transform="matrix(1,0,0,1,0,0)">
				<g>
					<path d="M124,11l-2,6v1h2v3h1v-3h2v-1l-2-6H124z M124.5,12l1.5,5h-3L124.5,12z"/>
				</g>
			</g>
		</g>
		<g>
			<g id="Si7gupcxiwp_7_" transform="matrix(1,0,0,1,0,0)">
				<g>
					<path d="M124,267l-2,6v1h2v3h1v-3h2v-1l-2-6H124z M124.5,268l1.5,5h-3L124.5,268z"/>
				</g>
			</g>
		</g>
		<g>
			<g id="Si7gupcxiwq_7_" transform="matrix(1,0,0,1,0,0)">
				<g>
					<path d="M138,8h1v5h-1V8z"/>
					<path d="M138.5,3c1.381,0,2.5,1.343,2.5,3s-1.119,3-2.5,3V8c0.828,0,1.5-0.896,1.5-2s-0.672-2-1.5-2S137,4.896,137,6
						s0.672,2,1.5,2v1c-1.381,0-2.5-1.343-2.5-3S137.119,3,138.5,3z"/>
				</g>
			</g>
		</g>
		<g>
			<g id="Si7gupcxiwq_8_" transform="matrix(1,0,0,1,0,0)">
				<g>
					<path d="M138,264h1v5h-1V264z"/>
					<path d="M138.5,259c1.381,0,2.5,1.344,2.5,3s-1.119,3-2.5,3v-1c0.828,0,1.5-0.896,1.5-2s-0.672-2-1.5-2s-1.5,0.896-1.5,2
						s0.672,2,1.5,2v1c-1.381,0-2.5-1.344-2.5-3S137.119,259,138.5,259z"/>
				</g>
			</g>
		</g>
		<g>
			<g id="Si7gupcxiwq_9_" transform="matrix(1,0,0,1,0,0)">
				<g>
					<path d="M168,19h1v5h-1V19z"/>
					<path d="M168.5,14c1.381,0,2.5,1.343,2.5,3s-1.119,3-2.5,3v-1c0.828,0,1.5-0.896,1.5-2s-0.672-2-1.5-2s-1.5,0.896-1.5,2
						s0.672,2,1.5,2v1c-1.381,0-2.5-1.343-2.5-3S167.119,14,168.5,14z"/>
				</g>
			</g>
		</g>
		<g>
			<g id="Si7gupcxiwq_10_" transform="matrix(1,0,0,1,0,0)">
				<g>
					<path d="M168,275h1v5h-1V275z"/>
					<path d="M168.5,270c1.381,0,2.5,1.344,2.5,3s-1.119,3-2.5,3v-1c0.828,0,1.5-0.896,1.5-2s-0.672-2-1.5-2s-1.5,0.896-1.5,2
						s0.672,2,1.5,2v1c-1.381,0-2.5-1.344-2.5-3S167.119,270,168.5,270z"/>
				</g>
			</g>
		</g>
		<g>
			<g id="Si7gupcxiwq_11_" transform="matrix(1,0,0,1,0,0)">
				<g>
					<path d="M182,9h1v5h-1V9z"/>
					<path d="M182.5,4c1.381,0,2.5,1.343,2.5,3s-1.119,3-2.5,3V9c0.828,0,1.5-0.896,1.5-2s-0.672-2-1.5-2S181,5.896,181,7
						s0.672,2,1.5,2v1c-1.381,0-2.5-1.343-2.5-3S181.119,4,182.5,4z"/>
				</g>
			</g>
		</g>
		<g>
			<g id="Si7gupcxiwq_12_" transform="matrix(1,0,0,1,0,0)">
				<g>
					<path d="M182,265h1v5h-1V265z"/>
					<path d="M182.5,260c1.381,0,2.5,1.344,2.5,3s-1.119,3-2.5,3v-1c0.828,0,1.5-0.896,1.5-2s-0.672-2-1.5-2s-1.5,0.896-1.5,2
						s0.672,2,1.5,2v1c-1.381,0-2.5-1.344-2.5-3S181.119,260,182.5,260z"/>
				</g>
			</g>
		</g>
		<g>
			<g id="Si7gupcxiwp_8_" transform="matrix(1,0,0,1,0,0)">
				<g>
					<path d="M199,6l-2,6v1h2v3h1v-3h2v-1l-2-6H199z M199.5,7l1.5,5h-3L199.5,7z"/>
				</g>
			</g>
		</g>
		<g>
			<g id="Si7gupcxiwp_9_" transform="matrix(1,0,0,1,0,0)">
				<g>
					<path d="M199,262l-2,6v1h2v3h1v-3h2v-1l-2-6H199z M199.5,263l1.5,5h-3L199.5,263z"/>
				</g>
			</g>
		</g>
		<g>
			<g id="Si7gupcxiwq_13_" transform="matrix(1,0,0,1,0,0)">
				<g>
					<path d="M233,21h1v5h-1V21z"/>
					<path d="M233.5,16c1.381,0,2.5,1.343,2.5,3s-1.119,3-2.5,3v-1c0.828,0,1.5-0.896,1.5-2s-0.672-2-1.5-2s-1.5,0.896-1.5,2
						s0.672,2,1.5,2v1c-1.381,0-2.5-1.343-2.5-3S232.119,16,233.5,16z"/>
				</g>
			</g>
		</g>
		<g>
			<g id="Si7gupcxiwq_14_" transform="matrix(1,0,0,1,0,0)">
				<g>
					<path d="M-23,21h1v5h-1V21z"/>
					<path d="M-22.5,16c1.381,0,2.5,1.343,2.5,3s-1.119,3-2.5,3v-1c0.829,0,1.5-0.896,1.5-2s-0.671-2-1.5-2s-1.5,0.896-1.5,2
						s0.671,2,1.5,2v1c-1.381,0-2.5-1.343-2.5-3S-23.881,16-22.5,16z"/>
				</g>
			</g>
		</g>
		<g>
			<g id="Si7gupcxiwq_15_" transform="matrix(1,0,0,1,0,0)">
				<g>
					<path d="M-23,277h1v5h-1V277z"/>
					<path d="M-22.5,272c1.381,0,2.5,1.344,2.5,3s-1.119,3-2.5,3v-1c0.829,0,1.5-0.896,1.5-2s-0.671-2-1.5-2s-1.5,0.896-1.5,2
						s0.671,2,1.5,2v1c-1.381,0-2.5-1.344-2.5-3S-23.881,272-22.5,272z"/>
				</g>
			</g>
		</g>
		<g>
			<g id="Si7gupcxiwq_16_" transform="matrix(1,0,0,1,0,0)">
				<g>
					<path d="M233,277h1v5h-1V277z"/>
					<path d="M233.5,272c1.381,0,2.5,1.344,2.5,3s-1.119,3-2.5,3v-1c0.828,0,1.5-0.896,1.5-2s-0.672-2-1.5-2s-1.5,0.896-1.5,2
						s0.672,2,1.5,2v1c-1.381,0-2.5-1.344-2.5-3S232.119,272,233.5,272z"/>
				</g>
			</g>
		</g>
		<g>
			<g id="Si7gupcxiwq_17_" transform="matrix(1,0,0,1,0,0)">
				<g>
					<path d="M-23,277h1v5h-1V277z"/>
					<path d="M-22.5,272c1.381,0,2.5,1.344,2.5,3s-1.119,3-2.5,3v-1c0.829,0,1.5-0.896,1.5-2s-0.671-2-1.5-2s-1.5,0.896-1.5,2
						s0.671,2,1.5,2v1c-1.381,0-2.5-1.344-2.5-3S-23.881,272-22.5,272z"/>
				</g>
			</g>
		</g>
		<g>
			<g id="Si7gupcxiwq_18_" transform="matrix(1,0,0,1,0,0)">
				<g>
					<path d="M252,9h1v5h-1V9z"/>
					<path d="M252.5,4c1.381,0,2.5,1.343,2.5,3s-1.119,3-2.5,3V9c0.828,0,1.5-0.896,1.5-2s-0.672-2-1.5-2S251,5.896,251,7
						s0.672,2,1.5,2v1c-1.381,0-2.5-1.343-2.5-3S251.119,4,252.5,4z"/>
				</g>
			</g>
		</g>
		<g>
			<g id="Si7gupcxiwq_19_" transform="matrix(1,0,0,1,0,0)">
				<g>
					<path d="M-4,9h1v5h-1V9z"/>
					<path d="M-3.5,4C-2.119,4-1,5.343-1,7s-1.119,3-2.5,3V9C-2.671,9-2,8.104-2,7s-0.671-2-1.5-2S-5,5.896-5,7s0.671,2,1.5,2v1
						C-4.881,10-6,8.657-6,7S-4.881,4-3.5,4z"/>
				</g>
			</g>
		</g>
		<g>
			<g id="Si7gupcxiwq_20_" transform="matrix(1,0,0,1,0,0)">
				<g>
					<path d="M-4,265h1v5h-1V265z"/>
					<path d="M-3.5,260c1.381,0,2.5,1.344,2.5,3s-1.119,3-2.5,3v-1c0.829,0,1.5-0.896,1.5-2s-0.671-2-1.5-2s-1.5,0.896-1.5,2
						s0.671,2,1.5,2v1c-1.381,0-2.5-1.344-2.5-3S-4.881,260-3.5,260z"/>
				</g>
			</g>
		</g>
		<g>
			<g id="Si7gupcxiwq_21_" transform="matrix(1,0,0,1,0,0)">
				<g>
					<path d="M252,265h1v5h-1V265z"/>
					<path d="M252.5,260c1.381,0,2.5,1.344,2.5,3s-1.119,3-2.5,3v-1c0.828,0,1.5-0.896,1.5-2s-0.672-2-1.5-2s-1.5,0.896-1.5,2
						s0.672,2,1.5,2v1c-1.381,0-2.5-1.344-2.5-3S251.119,260,252.5,260z"/>
				</g>
			</g>
		</g>
		<g>
			<g id="Si7gupcxiwq_22_" transform="matrix(1,0,0,1,0,0)">
				<g>
					<path d="M-4,265h1v5h-1V265z"/>
					<path d="M-3.5,260c1.381,0,2.5,1.344,2.5,3s-1.119,3-2.5,3v-1c0.829,0,1.5-0.896,1.5-2s-0.671-2-1.5-2s-1.5,0.896-1.5,2
						s0.671,2,1.5,2v1c-1.381,0-2.5-1.344-2.5-3S-4.881,260-3.5,260z"/>
				</g>
			</g>
		</g>
		<g>
			<g id="Si7gupcxiwp_10_" transform="matrix(1,0,0,1,0,0)">
				<g>
					<path d="M7,29l-2,6v1h2v3h1v-3h2v-1l-2-6H7z M7.5,30L9,35H6L7.5,30z"/>
				</g>
			</g>
		</g>
		<g>
			<g id="Si7gupcxiwp_11_" transform="matrix(1,0,0,1,0,0)">
				<g>
					<path d="M263,29l-2,6v1h2v3h1v-3h2v-1l-2-6H263z M263.5,30l1.5,5h-3L263.5,30z"/>
				</g>
			</g>
		</g>
		<g>
			<g id="Si7gupcxiwp_12_" transform="matrix(1,0,0,1,0,0)">
				<g>
					<path d="M263,285l-2,6v1h2v3h1v-3h2v-1l-2-6H263z M263.5,286l1.5,5h-3L263.5,286z"/>
				</g>
			</g>
		</g>
		<g>
			<g id="Si7gupcxiwp_13_" transform="matrix(1,0,0,1,0,0)">
				<g>
					<path d="M7,285l-2,6v1h2v3h1v-3h2v-1l-2-6H7z M7.5,286l1.5,5H6L7.5,286z"/>
				</g>
			</g>
		</g>
		<g>
			<g id="Si7gupcxiwp_14_" transform="matrix(1,0,0,1,0,0)">
				<g>
					<path d="M263,285l-2,6v1h2v3h1v-3h2v-1l-2-6H263z M263.5,286l1.5,5h-3L263.5,286z"/>
				</g>
			</g>
		</g>
		<g>
			<g id="Si7gupcxiwq_23_" transform="matrix(1,0,0,1,0,0)">
				<g>
					<path d="M39,36h1v5h-1V36z"/>
					<path d="M39.5,31c1.381,0,2.5,1.343,2.5,3s-1.119,3-2.5,3v-1c0.829,0,1.5-0.896,1.5-2s-0.671-2-1.5-2S38,32.896,38,34
						s0.671,2,1.5,2v1c-1.381,0-2.5-1.343-2.5-3S38.119,31,39.5,31z"/>
				</g>
			</g>
		</g>
		<g>
			<g id="Si7gupcxiwq_24_" transform="matrix(1,0,0,1,0,0)">
				<g>
					<path d="M39,292h1v5h-1V292z"/>
					<path d="M39.5,287c1.381,0,2.5,1.344,2.5,3s-1.119,3-2.5,3v-1c0.829,0,1.5-0.896,1.5-2s-0.671-2-1.5-2s-1.5,0.896-1.5,2
						s0.671,2,1.5,2v1c-1.381,0-2.5-1.344-2.5-3S38.119,287,39.5,287z"/>
				</g>
			</g>
		</g>
		<g>
			<g id="Si7gupcxiwp_15_" transform="matrix(1,0,0,1,0,0)">
				<g>
					<path d="M53,40l-2,6v1h2v3h1v-3h2v-1l-2-6H53z M53.5,41l1.5,5h-3L53.5,41z"/>
				</g>
			</g>
		</g>
		<g>
			<g id="Si7gupcxiwp_16_" transform="matrix(1,0,0,1,0,0)">
				<g>
					<path d="M70,30l-2,6v1h2v3h1v-3h2v-1l-2-6H70z M70.5,31l1.5,5h-3L70.5,31z"/>
				</g>
			</g>
		</g>
		<g>
			<g id="Si7gupcxiwp_17_" transform="matrix(1,0,0,1,0,0)">
				<g>
					<path d="M70,286l-2,6v1h2v3h1v-3h2v-1l-2-6H70z M70.5,287l1.5,5h-3L70.5,287z"/>
				</g>
			</g>
		</g>
		<g>
			<g id="Si7gupcxiwp_18_" transform="matrix(1,0,0,1,0,0)">
				<g>
					<path d="M101,25l-2,6v1h2v3h1v-3h2v-1l-2-6H101z M101.5,26l1.5,5h-3L101.5,26z"/>
				</g>
			</g>
		</g>
		<g>
			<g id="Si7gupcxiwp_19_" transform="matrix(1,0,0,1,0,0)">
				<g>
					<path d="M101,281l-2,6v1h2v3h1v-3h2v-1l-2-6H101z M101.5,282l1.5,5h-3L101.5,282z"/>
				</g>
			</g>
		</g>
		<g>
			<g id="Si7gupcxiwp_20_" transform="matrix(1,0,0,1,0,0)">
				<g>
					<path d="M129,40l-2,6v1h2v3h1v-3h2v-1l-2-6H129z M129.5,41l1.5,5h-3L129.5,41z"/>
				</g>
			</g>
		</g>
		<g>
			<g id="Si7gupcxiwp_21_" transform="matrix(1,0,0,1,0,0)">
				<g>
					<path d="M143,34l-2,6v1h2v3h1v-3h2v-1l-2-6H143z M143.5,35l1.5,5h-3L143.5,35z"/>
				</g>
			</g>
		</g>
		<g>
			<g id="Si7gupcxiwq_25_" transform="matrix(1,0,0,1,0,0)">
				<g>
					<path d="M155,26h1v5h-1V26z"/>
					<path d="M155.5,21c1.381,0,2.5,1.343,2.5,3s-1.119,3-2.5,3v-1c0.828,0,1.5-0.896,1.5-2s-0.672-2-1.5-2s-1.5,0.896-1.5,2
						s0.672,2,1.5,2v1c-1.381,0-2.5-1.343-2.5-3S154.119,21,155.5,21z"/>
				</g>
			</g>
		</g>
		<g>
			<g id="Si7gupcxiwq_26_" transform="matrix(1,0,0,1,0,0)">
				<g>
					<path d="M155,282h1v5h-1V282z"/>
					<path d="M155.5,277c1.381,0,2.5,1.344,2.5,3s-1.119,3-2.5,3v-1c0.828,0,1.5-0.896,1.5-2s-0.672-2-1.5-2s-1.5,0.896-1.5,2
						s0.672,2,1.5,2v1c-1.381,0-2.5-1.344-2.5-3S154.119,277,155.5,277z"/>
				</g>
			</g>
		</g>
		<g>
			<g id="Si7gupcxiwp_22_" transform="matrix(1,0,0,1,0,0)">
				<g>
					<path d="M185,31l-2,6v1h2v3h1v-3h2v-1l-2-6H185z M185.5,32l1.5,5h-3L185.5,32z"/>
				</g>
			</g>
		</g>
		<g>
			<g id="Si7gupcxiwp_23_" transform="matrix(1,0,0,1,0,0)">
				<g>
					<path d="M185,287l-2,6v1h2v3h1v-3h2v-1l-2-6H185z M185.5,288l1.5,5h-3L185.5,288z"/>
				</g>
			</g>
		</g>
		<g>
			<g id="Si7gupcxiwp_24_" transform="matrix(1,0,0,1,0,0)">
				<g>
					<path d="M205,32l-2,6v1h2v3h1v-3h2v-1l-2-6H205z M205.5,33l1.5,5h-3L205.5,33z"/>
				</g>
			</g>
		</g>
		<g>
			<g id="Si7gupcxiwp_25_" transform="matrix(1,0,0,1,0,0)">
				<g>
					<path d="M218,19l-2,6v1h2v3h1v-3h2v-1l-2-6H218z M218.5,20l1.5,5h-3L218.5,20z"/>
				</g>
			</g>
		</g>
		<g>
			<g id="Si7gupcxiwp_26_" transform="matrix(1,0,0,1,0,0)">
				<g>
					<path d="M218,275l-2,6v1h2v3h1v-3h2v-1l-2-6H218z M218.5,276l1.5,5h-3L218.5,276z"/>
				</g>
			</g>
		</g>
		<g>
			<g id="Si7gupcxiwp_27_" transform="matrix(1,0,0,1,0,0)">
				<g>
					<path d="M243,35l-2,6v1h2v3h1v-3h2v-1l-2-6H243z M243.5,36l1.5,5h-3L243.5,36z"/>
				</g>
			</g>
		</g>
		<g>
			<g id="Si7gupcxiwp_28_" transform="matrix(1,0,0,1,0,0)">
				<g>
					<path d="M-13,35l-2,6v1h2v3h1v-3h2v-1l-2-6H-13z M-12.5,36l1.5,5h-3L-12.5,36z"/>
				</g>
			</g>
		</g>
		<g>
			<g id="Si7gupcxiwq_27_" transform="matrix(1,0,0,1,0,0)">
				<g>
					<path d="M13,49h1v5h-1V49z"/>
					<path d="M13.5,44c1.381,0,2.5,1.343,2.5,3s-1.119,3-2.5,3v-1c0.829,0,1.5-0.896,1.5-2s-0.671-2-1.5-2S12,45.896,12,47
						s0.671,2,1.5,2v1c-1.381,0-2.5-1.343-2.5-3S12.119,44,13.5,44z"/>
				</g>
			</g>
		</g>
		<g>
			<g id="Si7gupcxiwq_28_" transform="matrix(1,0,0,1,0,0)">
				<g>
					<path d="M269,49h1v5h-1V49z"/>
					<path d="M269.5,44c1.381,0,2.5,1.343,2.5,3s-1.119,3-2.5,3v-1c0.828,0,1.5-0.896,1.5-2s-0.672-2-1.5-2s-1.5,0.896-1.5,2
						s0.672,2,1.5,2v1c-1.381,0-2.5-1.343-2.5-3S268.119,44,269.5,44z"/>
				</g>
			</g>
		</g>
		<g>
			<g id="Si7gupcxiwq_29_" transform="matrix(1,0,0,1,0,0)">
				<g>
					<path d="M31,55h1v5h-1V55z"/>
					<path d="M31.5,50c1.381,0,2.5,1.343,2.5,3s-1.119,3-2.5,3v-1c0.829,0,1.5-0.896,1.5-2s-0.671-2-1.5-2S30,51.896,30,53
						s0.671,2,1.5,2v1c-1.381,0-2.5-1.343-2.5-3S30.119,50,31.5,50z"/>
				</g>
			</g>
		</g>
		<g>
			<g id="Si7gupcxiwq_30_" transform="matrix(1,0,0,1,0,0)">
				<g>
					<path d="M287,55h1v5h-1V55z"/>
					<path d="M287.5,50c1.381,0,2.5,1.343,2.5,3s-1.119,3-2.5,3v-1c0.828,0,1.5-0.896,1.5-2s-0.672-2-1.5-2s-1.5,0.896-1.5,2
						s0.672,2,1.5,2v1c-1.381,0-2.5-1.343-2.5-3S286.119,50,287.5,50z"/>
				</g>
			</g>
		</g>
		<g>
			<g id="Si7gupcxiwq_31_" transform="matrix(1,0,0,1,0,0)">
				<g>
					<path d="M61,66h1v5h-1V66z"/>
					<path d="M61.5,61c1.381,0,2.5,1.343,2.5,3s-1.119,3-2.5,3v-1c0.829,0,1.5-0.896,1.5-2s-0.671-2-1.5-2S60,62.896,60,64
						s0.671,2,1.5,2v1c-1.381,0-2.5-1.343-2.5-3S60.119,61,61.5,61z"/>
				</g>
			</g>
		</g>
		<g>
			<g id="Si7gupcxiwq_32_" transform="matrix(1,0,0,1,0,0)">
				<g>
					<path d="M81,55h1v5h-1V55z"/>
					<path d="M81.5,50c1.381,0,2.5,1.343,2.5,3s-1.119,3-2.5,3v-1c0.829,0,1.5-0.896,1.5-2s-0.671-2-1.5-2S80,51.896,80,53
						s0.671,2,1.5,2v1c-1.381,0-2.5-1.343-2.5-3S80.119,50,81.5,50z"/>
				</g>
			</g>
		</g>
		<g>
			<g id="Si7gupcxiwq_33_" transform="matrix(1,0,0,1,0,0)">
				<g>
					<path d="M98,51h1v5h-1V51z"/>
					<path d="M98.5,46c1.381,0,2.5,1.343,2.5,3s-1.119,3-2.5,3v-1c0.829,0,1.5-0.896,1.5-2s-0.671-2-1.5-2S97,47.896,97,49
						s0.671,2,1.5,2v1c-1.381,0-2.5-1.343-2.5-3S97.119,46,98.5,46z"/>
				</g>
			</g>
		</g>
		<g>
			<g id="Si7gupcxiwp_29_" transform="matrix(1,0,0,1,0,0)">
				<g>
					<path d="M113,52l-2,6v1h2v3h1v-3h2v-1l-2-6H113z M113.5,53l1.5,5h-3L113.5,53z"/>
				</g>
			</g>
		</g>
		<g>
			<g id="Si7gupcxiwq_34_" transform="matrix(1,0,0,1,0,0)">
				<g>
					<path d="M130,68h1v5h-1V68z"/>
					<path d="M130.5,63c1.381,0,2.5,1.343,2.5,3s-1.119,3-2.5,3v-1c0.828,0,1.5-0.896,1.5-2s-0.672-2-1.5-2s-1.5,0.896-1.5,2
						s0.672,2,1.5,2v1c-1.381,0-2.5-1.343-2.5-3S129.119,63,130.5,63z"/>
				</g>
			</g>
		</g>
		<g>
			<g id="Si7gupcxiwq_35_" transform="matrix(1,0,0,1,0,0)">
				<g>
					<path d="M160,56h1v5h-1V56z"/>
					<path d="M160.5,51c1.381,0,2.5,1.343,2.5,3s-1.119,3-2.5,3v-1c0.828,0,1.5-0.896,1.5-2s-0.672-2-1.5-2s-1.5,0.896-1.5,2
						s0.672,2,1.5,2v1c-1.381,0-2.5-1.343-2.5-3S159.119,51,160.5,51z"/>
				</g>
			</g>
		</g>
		<g>
			<g id="Si7gupcxiwq_36_" transform="matrix(1,0,0,1,0,0)">
				<g>
					<path d="M176,50h1v5h-1V50z"/>
					<path d="M176.5,45c1.381,0,2.5,1.343,2.5,3s-1.119,3-2.5,3v-1c0.828,0,1.5-0.896,1.5-2s-0.672-2-1.5-2s-1.5,0.896-1.5,2
						s0.672,2,1.5,2v1c-1.381,0-2.5-1.343-2.5-3S175.119,45,176.5,45z"/>
				</g>
			</g>
		</g>
		<g>
			<g id="Si7gupcxiwp_30_" transform="matrix(1,0,0,1,0,0)">
				<g>
					<path d="M208,49l-2,6v1h2v3h1v-3h2v-1l-2-6H208z M208.5,50l1.5,5h-3L208.5,50z"/>
				</g>
			</g>
		</g>
		<g>
			<g id="Si7gupcxiwp_31_" transform="matrix(1,0,0,1,0,0)">
				<g>
					<path d="M232,48l-2,6v1h2v3h1v-3h2v-1l-2-6H232z M232.5,49l1.5,5h-3L232.5,49z"/>
				</g>
			</g>
		</g>
		<g>
			<g id="Si7gupcxiwp_32_" transform="matrix(1,0,0,1,0,0)">
				<g>
					<path d="M-24,48l-2,6v1h2v3h1v-3h2v-1l-2-6H-24z M-23.5,49l1.5,5h-3L-23.5,49z"/>
				</g>
			</g>
		</g>
		<g>
			<g id="Si7gupcxiwq_37_" transform="matrix(1,0,0,1,0,0)">
				<g>
					<path d="M246,72h1v5h-1V72z"/>
					<path d="M246.5,67c1.381,0,2.5,1.343,2.5,3s-1.119,3-2.5,3v-1c0.828,0,1.5-0.896,1.5-2s-0.672-2-1.5-2s-1.5,0.896-1.5,2
						s0.672,2,1.5,2v1c-1.381,0-2.5-1.343-2.5-3S245.119,67,246.5,67z"/>
				</g>
			</g>
		</g>
		<g>
			<g id="Si7gupcxiwq_38_" transform="matrix(1,0,0,1,0,0)">
				<g>
					<path d="M-10,72h1v5h-1V72z"/>
					<path d="M-9.5,67c1.381,0,2.5,1.343,2.5,3s-1.119,3-2.5,3v-1c0.829,0,1.5-0.896,1.5-2s-0.671-2-1.5-2s-1.5,0.896-1.5,2
						s0.671,2,1.5,2v1c-1.381,0-2.5-1.343-2.5-3S-10.881,67-9.5,67z"/>
				</g>
			</g>
		</g>
		<g>
			<g id="Si7gupcxiwp_33_" transform="matrix(1,0,0,1,0,0)">
				<g>
					<path d="M6,61l-2,6v1h2v3h1v-3h2v-1l-2-6H6z M6.5,62L8,67H5L6.5,62z"/>
				</g>
			</g>
		</g>
		<g>
			<g id="Si7gupcxiwp_34_" transform="matrix(1,0,0,1,0,0)">
				<g>
					<path d="M262,61l-2,6v1h2v3h1v-3h2v-1l-2-6H262z M262.5,62l1.5,5h-3L262.5,62z"/>
				</g>
			</g>
		</g>
		<g>
			<g id="Si7gupcxiwp_35_" transform="matrix(1,0,0,1,0,0)">
				<g>
					<path d="M29,71l-2,6v1h2v3h1v-3h2v-1l-2-6H29z M29.5,72l1.5,5h-3L29.5,72z"/>
				</g>
			</g>
		</g>
		<g>
			<g id="Si7gupcxiwp_36_" transform="matrix(1,0,0,1,0,0)">
				<g>
					<path d="M285,71l-2,6v1h2v3h1v-3h2v-1l-2-6H285z M285.5,72l1.5,5h-3L285.5,72z"/>
				</g>
			</g>
		</g>
		<g>
			<g id="Si7gupcxiwp_37_" transform="matrix(1,0,0,1,0,0)">
				<g>
					<path d="M49,75l-2,6v1h2v3h1v-3h2v-1l-2-6H49z M49.5,76l1.5,5h-3L49.5,76z"/>
				</g>
			</g>
		</g>
		<g>
			<g id="Si7gupcxiwp_38_" transform="matrix(1,0,0,1,0,0)">
				<g>
					<path d="M81,74l-2,6v1h2v3h1v-3h2v-1l-2-6H81z M81.5,75l1.5,5h-3L81.5,75z"/>
				</g>
			</g>
		</g>
		<g>
			<g id="Si7gupcxiwq_39_" transform="matrix(1,0,0,1,0,0)">
				<g>
					<path d="M100,79h1v5h-1V79z"/>
					<path d="M100.5,74c1.381,0,2.5,1.343,2.5,3s-1.119,3-2.5,3v-1c0.829,0,1.5-0.896,1.5-2s-0.671-2-1.5-2S99,75.896,99,77
						s0.671,2,1.5,2v1c-1.381,0-2.5-1.343-2.5-3S99.119,74,100.5,74z"/>
				</g>
			</g>
		</g>
		<g>
			<g id="Si7gupcxiwq_40_" transform="matrix(1,0,0,1,0,0)">
				<g>
					<path d="M124,87h1v5h-1V87z"/>
					<path d="M124.5,82c1.381,0,2.5,1.343,2.5,3s-1.119,3-2.5,3v-1c0.829,0,1.5-0.896,1.5-2s-0.671-2-1.5-2s-1.5,0.896-1.5,2
						s0.671,2,1.5,2v1c-1.381,0-2.5-1.343-2.5-3S123.119,82,124.5,82z"/>
				</g>
			</g>
		</g>
		<g>
			<g id="Si7gupcxiwq_41_" transform="matrix(1,0,0,1,0,0)">
				<g>
					<path d="M150,70h1v5h-1V70z"/>
					<path d="M150.5,65c1.381,0,2.5,1.343,2.5,3s-1.119,3-2.5,3v-1c0.828,0,1.5-0.896,1.5-2s-0.672-2-1.5-2s-1.5,0.896-1.5,2
						s0.672,2,1.5,2v1c-1.381,0-2.5-1.343-2.5-3S149.119,65,150.5,65z"/>
				</g>
			</g>
		</g>
		<g>
			<g id="Si7gupcxiwp_39_" transform="matrix(1,0,0,1,0,0)">
				<g>
					<path d="M156,81l-2,6v1h2v3h1v-3h2v-1l-2-6H156z M156.5,82l1.5,5h-3L156.5,82z"/>
				</g>
			</g>
		</g>
		<g>
			<g id="Si7gupcxiwp_40_" transform="matrix(1,0,0,1,0,0)">
				<g>
					<path d="M181,73l-2,6v1h2v3h1v-3h2v-1l-2-6H181z M181.5,74l1.5,5h-3L181.5,74z"/>
				</g>
			</g>
		</g>
		<g>
			<g id="Si7gupcxiwq_42_" transform="matrix(1,0,0,1,0,0)">
				<g>
					<path d="M200,70h1v5h-1V70z"/>
					<path d="M200.5,65c1.381,0,2.5,1.343,2.5,3s-1.119,3-2.5,3v-1c0.828,0,1.5-0.896,1.5-2s-0.672-2-1.5-2s-1.5,0.896-1.5,2
						s0.672,2,1.5,2v1c-1.381,0-2.5-1.343-2.5-3S199.119,65,200.5,65z"/>
				</g>
			</g>
		</g>
		<g>
			<g id="Si7gupcxiwp_41_" transform="matrix(1,0,0,1,0,0)">
				<g>
					<path d="M216,70l-2,6v1h2v3h1v-3h2v-1l-2-6H216z M216.5,71l1.5,5h-3L216.5,71z"/>
				</g>
			</g>
		</g>
		<g>
			<g id="Si7gupcxiwp_42_" transform="matrix(1,0,0,1,0,0)">
				<g>
					<path d="M241,86l-2,6v1h2v3h1v-3h2v-1l-2-6H241z M241.5,87l1.5,5h-3L241.5,87z"/>
				</g>
			</g>
		</g>
		<g>
			<g id="Si7gupcxiwp_43_" transform="matrix(1,0,0,1,0,0)">
				<g>
					<path d="M-15,86l-2,6v1h2v3h1v-3h2v-1l-2-6H-15z M-14.5,87l1.5,5h-3L-14.5,87z"/>
				</g>
			</g>
		</g>
		<g>
			<g id="Si7gupcxiwp_44_" transform="matrix(1,0,0,1,0,0)">
				<g>
					<path d="M17,87l-2,6v1h2v3h1v-3h2v-1l-2-6H17z M17.5,88l1.5,5h-3L17.5,88z"/>
				</g>
			</g>
		</g>
		<g>
			<g id="Si7gupcxiwp_45_" transform="matrix(1,0,0,1,0,0)">
				<g>
					<path d="M273,87l-2,6v1h2v3h1v-3h2v-1l-2-6H273z M273.5,88l1.5,5h-3L273.5,88z"/>
				</g>
			</g>
		</g>
		<g>
			<g id="Si7gupcxiwp_46_" transform="matrix(1,0,0,1,0,0)">
				<g>
					<path d="M31,101l-2,6v1h2v3h1v-3h2v-1l-2-6H31z M31.5,102l1.5,5h-3L31.5,102z"/>
				</g>
			</g>
		</g>
		<g>
			<g id="Si7gupcxiwp_47_" transform="matrix(1,0,0,1,0,0)">
				<g>
					<path d="M287,101l-2,6v1h2v3h1v-3h2v-1l-2-6H287z M287.5,102l1.5,5h-3L287.5,102z"/>
				</g>
			</g>
		</g>
		<g>
			<g id="Si7gupcxiwq_43_" transform="matrix(1,0,0,1,0,0)">
				<g>
					<path d="M54,96h1v5h-1V96z"/>
					<path d="M54.5,91c1.381,0,2.5,1.343,2.5,3s-1.119,3-2.5,3v-1c0.829,0,1.5-0.896,1.5-2s-0.671-2-1.5-2S53,92.896,53,94
						s0.671,2,1.5,2v1c-1.381,0-2.5-1.343-2.5-3S53.119,91,54.5,91z"/>
				</g>
			</g>
		</g>
		<g>
			<g id="Si7gupcxiwq_44_" transform="matrix(1,0,0,1,0,0)">
				<g>
					<path d="M73,101h1v5h-1V101z"/>
					<path d="M73.5,96c1.381,0,2.5,1.343,2.5,3s-1.119,3-2.5,3v-1c0.829,0,1.5-0.896,1.5-2s-0.671-2-1.5-2S72,97.896,72,99
						s0.671,2,1.5,2v1c-1.381,0-2.5-1.343-2.5-3S72.119,96,73.5,96z"/>
				</g>
			</g>
		</g>
		<g>
			<g id="Si7gupcxiwq_45_" transform="matrix(1,0,0,1,0,0)">
				<g>
					<path d="M94,108h1v5h-1V108z"/>
					<path d="M94.5,103c1.381,0,2.5,1.343,2.5,3s-1.119,3-2.5,3v-1c0.829,0,1.5-0.896,1.5-2s-0.671-2-1.5-2s-1.5,0.896-1.5,2
						s0.671,2,1.5,2v1c-1.381,0-2.5-1.343-2.5-3S93.119,103,94.5,103z"/>
				</g>
			</g>
		</g>
		<g>
			<g id="Si7gupcxiwp_48_" transform="matrix(1,0,0,1,0,0)">
				<g>
					<path d="M107,92l-2,6v1h2v3h1v-3h2v-1l-2-6H107z M107.5,93l1.5,5h-3L107.5,93z"/>
				</g>
			</g>
		</g>
		<g>
			<g id="Si7gupcxiwq_46_" transform="matrix(1,0,0,1,0,0)">
				<g>
					<path d="M132,100h1v5h-1V100z"/>
					<path d="M132.5,95c1.381,0,2.5,1.343,2.5,3s-1.119,3-2.5,3v-1c0.828,0,1.5-0.896,1.5-2s-0.672-2-1.5-2s-1.5,0.896-1.5,2
						s0.672,2,1.5,2v1c-1.381,0-2.5-1.343-2.5-3S131.119,95,132.5,95z"/>
				</g>
			</g>
		</g>
		<g>
			<g id="Si7gupcxiwq_47_" transform="matrix(1,0,0,1,0,0)">
				<g>
					<path d="M158,101h1v5h-1V101z"/>
					<path d="M158.5,96c1.381,0,2.5,1.343,2.5,3s-1.119,3-2.5,3v-1c0.828,0,1.5-0.896,1.5-2s-0.672-2-1.5-2s-1.5,0.896-1.5,2
						s0.672,2,1.5,2v1c-1.381,0-2.5-1.343-2.5-3S157.119,96,158.5,96z"/>
				</g>
			</g>
		</g>
		<g>
			<g id="Si7gupcxiwq_48_" transform="matrix(1,0,0,1,0,0)">
				<g>
					<path d="M187,94h1v5h-1V94z"/>
					<path d="M187.5,89c1.381,0,2.5,1.343,2.5,3s-1.119,3-2.5,3v-1c0.828,0,1.5-0.896,1.5-2s-0.672-2-1.5-2s-1.5,0.896-1.5,2
						s0.672,2,1.5,2v1c-1.381,0-2.5-1.343-2.5-3S186.119,89,187.5,89z"/>
				</g>
			</g>
		</g>
		<g>
			<g id="Si7gupcxiwp_49_" transform="matrix(1,0,0,1,0,0)">
				<g>
					<path d="M202,98l-2,6v1h2v3h1v-3h2v-1l-2-6H202z M202.5,99l1.5,5h-3L202.5,99z"/>
				</g>
			</g>
		</g>
		<g>
			<g id="Si7gupcxiwp_50_" transform="matrix(1,0,0,1,0,0)">
				<g>
					<path d="M223,90l-2,6v1h2v3h1v-3h2v-1l-2-6H223z M223.5,91l1.5,5h-3L223.5,91z"/>
				</g>
			</g>
		</g>
		<g>
			<g id="Si7gupcxiwp_51_" transform="matrix(1,0,0,1,0,0)">
				<g>
					<path d="M255,98l-2,6v1h2v3h1v-3h2v-1l-2-6H255z M255.5,99l1.5,5h-3L255.5,99z"/>
				</g>
			</g>
		</g>
		<g>
			<g id="Si7gupcxiwp_52_" transform="matrix(1,0,0,1,0,0)">
				<g>
					<path d="M-1,98l-2,6v1h2v3h1v-3h2v-1l-2-6H-1z M-0.5,99l1.5,5h-3L-0.5,99z"/>
				</g>
			</g>
		</g>
		<g>
			<g id="Si7gupcxiwq_49_" transform="matrix(1,0,0,1,0,0)">
				<g>
					<path d="M16,119h1v5h-1V119z"/>
					<path d="M16.5,114c1.381,0,2.5,1.343,2.5,3s-1.119,3-2.5,3v-1c0.829,0,1.5-0.896,1.5-2s-0.671-2-1.5-2s-1.5,0.896-1.5,2
						s0.671,2,1.5,2v1c-1.381,0-2.5-1.343-2.5-3S15.119,114,16.5,114z"/>
				</g>
			</g>
		</g>
		<g>
			<g id="Si7gupcxiwq_50_" transform="matrix(1,0,0,1,0,0)">
				<g>
					<path d="M272,119h1v5h-1V119z"/>
					<path d="M272.5,114c1.381,0,2.5,1.343,2.5,3s-1.119,3-2.5,3v-1c0.828,0,1.5-0.896,1.5-2s-0.672-2-1.5-2s-1.5,0.896-1.5,2
						s0.672,2,1.5,2v1c-1.381,0-2.5-1.343-2.5-3S271.119,114,272.5,114z"/>
				</g>
			</g>
		</g>
		<g>
			<g id="Si7gupcxiwp_53_" transform="matrix(1,0,0,1,0,0)">
				<g>
					<path d="M43,113l-2,6v1h2v3h1v-3h2v-1l-2-6H43z M43.5,114l1.5,5h-3L43.5,114z"/>
				</g>
			</g>
		</g>
		<g>
			<g id="Si7gupcxiwp_54_" transform="matrix(1,0,0,1,0,0)">
				<g>
					<path d="M55,123l-2,6v1h2v3h1v-3h2v-1l-2-6H55z M55.5,124l1.5,5h-3L55.5,124z"/>
				</g>
			</g>
		</g>
		<g>
			<g id="Si7gupcxiwp_55_" transform="matrix(1,0,0,1,0,0)">
				<g>
					<path d="M72,126l-2,6v1h2v3h1v-3h2v-1l-2-6H72z M72.5,127l1.5,5h-3L72.5,127z"/>
				</g>
			</g>
		</g>
		<g>
			<g id="Si7gupcxiwq_51_" transform="matrix(1,0,0,1,0,0)">
				<g>
					<path d="M93,126h1v5h-1V126z"/>
					<path d="M93.5,121c1.381,0,2.5,1.343,2.5,3s-1.119,3-2.5,3v-1c0.829,0,1.5-0.896,1.5-2s-0.671-2-1.5-2s-1.5,0.896-1.5,2
						s0.671,2,1.5,2v1c-1.381,0-2.5-1.343-2.5-3S92.119,121,93.5,121z"/>
				</g>
			</g>
		</g>
		<g>
			<g id="Si7gupcxiwq_52_" transform="matrix(1,0,0,1,0,0)">
				<g>
					<path d="M124,119h1v5h-1V119z"/>
					<path d="M124.5,114c1.381,0,2.5,1.343,2.5,3s-1.119,3-2.5,3v-1c0.829,0,1.5-0.896,1.5-2s-0.671-2-1.5-2s-1.5,0.896-1.5,2
						s0.671,2,1.5,2v1c-1.381,0-2.5-1.343-2.5-3S123.119,114,124.5,114z"/>
				</g>
			</g>
		</g>
		<g>
			<g id="Si7gupcxiwq_53_" transform="matrix(1,0,0,1,0,0)">
				<g>
					<path d="M144,119h1v5h-1V119z"/>
					<path d="M144.5,114c1.381,0,2.5,1.343,2.5,3s-1.119,3-2.5,3v-1c0.828,0,1.5-0.896,1.5-2s-0.672-2-1.5-2s-1.5,0.896-1.5,2
						s0.672,2,1.5,2v1c-1.381,0-2.5-1.343-2.5-3S143.119,114,144.5,114z"/>
				</g>
			</g>
		</g>
		<g>
			<g id="Si7gupcxiwp_56_" transform="matrix(1,0,0,1,0,0)">
				<g>
					<path d="M165,112l-2,6v1h2v3h1v-3h2v-1l-2-6H165z M165.5,113l1.5,5h-3L165.5,113z"/>
				</g>
			</g>
		</g>
		<g>
			<g id="Si7gupcxiwp_57_" transform="matrix(1,0,0,1,0,0)">
				<g>
					<path d="M179,120l-2,6v1h2v3h1v-3h2v-1l-2-6H179z M179.5,121l1.5,5h-3L179.5,121z"/>
				</g>
			</g>
		</g>
		<g>
			<g id="Si7gupcxiwp_58_" transform="matrix(1,0,0,1,0,0)">
				<g>
					<path d="M203,116l-2,6v1h2v3h1v-3h2v-1l-2-6H203z M203.5,117l1.5,5h-3L203.5,117z"/>
				</g>
			</g>
		</g>
		<g>
			<g id="Si7gupcxiwp_59_" transform="matrix(1,0,0,1,0,0)">
				<g>
					<path d="M228,114l-2,6v1h2v3h1v-3h2v-1l-2-6H228z M228.5,115l1.5,5h-3L228.5,115z"/>
				</g>
			</g>
		</g>
		<g>
			<g id="Si7gupcxiwp_60_" transform="matrix(1,0,0,1,0,0)">
				<g>
					<path d="M-28,114l-2,6v1h2v3h1v-3h2v-1l-2-6H-28z M-27.5,115l1.5,5h-3L-27.5,115z"/>
				</g>
			</g>
		</g>
		<g>
			<g id="Si7gupcxiwp_61_" transform="matrix(1,0,0,1,0,0)">
				<g>
					<path d="M240,118l-2,6v1h2v3h1v-3h2v-1l-2-6H240z M240.5,119l1.5,5h-3L240.5,119z"/>
				</g>
			</g>
		</g>
		<g>
			<g id="Si7gupcxiwp_62_" transform="matrix(1,0,0,1,0,0)">
				<g>
					<path d="M-16,118l-2,6v1h2v3h1v-3h2v-1l-2-6H-16z M-15.5,119l1.5,5h-3L-15.5,119z"/>
				</g>
			</g>
		</g>
		<g>
			<g id="Si7gupcxiwp_63_" transform="matrix(1,0,0,1,0,0)">
				<g>
					<path d="M14,128l-2,6v1h2v3h1v-3h2v-1l-2-6H14z M14.5,129l1.5,5h-3L14.5,129z"/>
				</g>
			</g>
		</g>
		<g>
			<g id="Si7gupcxiwp_64_" transform="matrix(1,0,0,1,0,0)">
				<g>
					<path d="M270,128l-2,6v1h2v3h1v-3h2v-1l-2-6H270z M270.5,129l1.5,5h-3L270.5,129z"/>
				</g>
			</g>
		</g>
		<g>
			<g id="Si7gupcxiwq_54_" transform="matrix(1,0,0,1,0,0)">
				<g>
					<path d="M30,147h1v5h-1V147z"/>
					<path d="M30.5,142c1.381,0,2.5,1.344,2.5,3s-1.119,3-2.5,3v-1c0.829,0,1.5-0.896,1.5-2s-0.671-2-1.5-2s-1.5,0.896-1.5,2
						s0.671,2,1.5,2v1c-1.381,0-2.5-1.344-2.5-3S29.119,142,30.5,142z"/>
				</g>
			</g>
		</g>
		<g>
			<g id="Si7gupcxiwq_55_" transform="matrix(1,0,0,1,0,0)">
				<g>
					<path d="M286,147h1v5h-1V147z"/>
					<path d="M286.5,142c1.381,0,2.5,1.344,2.5,3s-1.119,3-2.5,3v-1c0.828,0,1.5-0.896,1.5-2s-0.672-2-1.5-2s-1.5,0.896-1.5,2
						s0.672,2,1.5,2v1c-1.381,0-2.5-1.344-2.5-3S285.119,142,286.5,142z"/>
				</g>
			</g>
		</g>
		<g>
			<g id="Si7gupcxiwq_56_" transform="matrix(1,0,0,1,0,0)">
				<g>
					<path d="M47,150h1v5h-1V150z"/>
					<path d="M47.5,145c1.381,0,2.5,1.344,2.5,3s-1.119,3-2.5,3v-1c0.829,0,1.5-0.896,1.5-2s-0.671-2-1.5-2s-1.5,0.896-1.5,2
						s0.671,2,1.5,2v1c-1.381,0-2.5-1.344-2.5-3S46.119,145,47.5,145z"/>
				</g>
			</g>
		</g>
		<g>
			<g id="Si7gupcxiwq_57_" transform="matrix(1,0,0,1,0,0)">
				<g>
					<path d="M79,148h1v5h-1V148z"/>
					<path d="M79.5,143c1.381,0,2.5,1.344,2.5,3s-1.119,3-2.5,3v-1c0.829,0,1.5-0.896,1.5-2s-0.671-2-1.5-2s-1.5,0.896-1.5,2
						s0.671,2,1.5,2v1c-1.381,0-2.5-1.344-2.5-3S78.119,143,79.5,143z"/>
				</g>
			</g>
		</g>
		<g>
			<g id="Si7gupcxiwq_58_" transform="matrix(1,0,0,1,0,0)">
				<g>
					<path d="M103,139h1v5h-1V139z"/>
					<path d="M103.5,134c1.381,0,2.5,1.344,2.5,3s-1.119,3-2.5,3v-1c0.829,0,1.5-0.896,1.5-2s-0.671-2-1.5-2s-1.5,0.896-1.5,2
						s0.671,2,1.5,2v1c-1.381,0-2.5-1.344-2.5-3S102.119,134,103.5,134z"/>
				</g>
			</g>
		</g>
		<g>
			<g id="Si7gupcxiwp_65_" transform="matrix(1,0,0,1,0,0)">
				<g>
					<path d="M122,136l-2,6v1h2v3h1v-3h2v-1l-2-6H122z M122.5,137l1.5,5h-3L122.5,137z"/>
				</g>
			</g>
		</g>
		<g>
			<g id="Si7gupcxiwq_59_" transform="matrix(1,0,0,1,0,0)">
				<g>
					<path d="M145,142h1v5h-1V142z"/>
					<path d="M145.5,137c1.381,0,2.5,1.344,2.5,3s-1.119,3-2.5,3v-1c0.828,0,1.5-0.896,1.5-2s-0.672-2-1.5-2s-1.5,0.896-1.5,2
						s0.672,2,1.5,2v1c-1.381,0-2.5-1.344-2.5-3S144.119,137,145.5,137z"/>
				</g>
			</g>
		</g>
		<g>
			<g id="Si7gupcxiwp_66_" transform="matrix(1,0,0,1,0,0)">
				<g>
					<path d="M157,143l-2,6v1h2v3h1v-3h2v-1l-2-6H157z M157.5,144l1.5,5h-3L157.5,144z"/>
				</g>
			</g>
		</g>
		<g>
			<g id="Si7gupcxiwq_60_" transform="matrix(1,0,0,1,0,0)">
				<g>
					<path d="M179,143h1v5h-1V143z"/>
					<path d="M179.5,138c1.381,0,2.5,1.344,2.5,3s-1.119,3-2.5,3v-1c0.828,0,1.5-0.896,1.5-2s-0.672-2-1.5-2s-1.5,0.896-1.5,2
						s0.672,2,1.5,2v1c-1.381,0-2.5-1.344-2.5-3S178.119,138,179.5,138z"/>
				</g>
			</g>
		</g>
		<g>
			<g id="Si7gupcxiwp_67_" transform="matrix(1,0,0,1,0,0)">
				<g>
					<path d="M210,128l-2,6v1h2v3h1v-3h2v-1l-2-6H210z M210.5,129l1.5,5h-3L210.5,129z"/>
				</g>
			</g>
		</g>
		<g>
			<g id="Si7gupcxiwp_68_" transform="matrix(1,0,0,1,0,0)">
				<g>
					<path d="M218,145l-2,6v1h2v3h1v-3h2v-1l-2-6H218z M218.5,146l1.5,5h-3L218.5,146z"/>
				</g>
			</g>
		</g>
		<g>
			<g id="Si7gupcxiwq_61_" transform="matrix(1,0,0,1,0,0)">
				<g>
					<path d="M249,141h1v5h-1V141z"/>
					<path d="M249.5,136c1.381,0,2.5,1.344,2.5,3s-1.119,3-2.5,3v-1c0.828,0,1.5-0.896,1.5-2s-0.672-2-1.5-2s-1.5,0.896-1.5,2
						s0.672,2,1.5,2v1c-1.381,0-2.5-1.344-2.5-3S248.119,136,249.5,136z"/>
				</g>
			</g>
		</g>
		<g>
			<g id="Si7gupcxiwq_62_" transform="matrix(1,0,0,1,0,0)">
				<g>
					<path d="M-7,141h1v5h-1V141z"/>
					<path d="M-6.5,136c1.381,0,2.5,1.344,2.5,3s-1.119,3-2.5,3v-1c0.829,0,1.5-0.896,1.5-2s-0.671-2-1.5-2s-1.5,0.896-1.5,2
						s0.671,2,1.5,2v1c-1.381,0-2.5-1.344-2.5-3S-7.881,136-6.5,136z"/>
				</g>
			</g>
		</g>
		<g>
			<g id="Si7gupcxiwp_69_" transform="matrix(1,0,0,1,0,0)">
				<g>
					<path d="M15,160l-2,6v1h2v3h1v-3h2v-1l-2-6H15z M15.5,161l1.5,5h-3L15.5,161z"/>
				</g>
			</g>
		</g>
		<g>
			<g id="Si7gupcxiwp_70_" transform="matrix(1,0,0,1,0,0)">
				<g>
					<path d="M271,160l-2,6v1h2v3h1v-3h2v-1l-2-6H271z M271.5,161l1.5,5h-3L271.5,161z"/>
				</g>
			</g>
		</g>
		<g>
			<g id="Si7gupcxiwq_63_" transform="matrix(1,0,0,1,0,0)">
				<g>
					<path d="M29,174h1v5h-1V174z"/>
					<path d="M29.5,169c1.381,0,2.5,1.344,2.5,3s-1.119,3-2.5,3v-1c0.829,0,1.5-0.896,1.5-2s-0.671-2-1.5-2s-1.5,0.896-1.5,2
						s0.671,2,1.5,2v1c-1.381,0-2.5-1.344-2.5-3S28.119,169,29.5,169z"/>
				</g>
			</g>
		</g>
		<g>
			<g id="Si7gupcxiwq_64_" transform="matrix(1,0,0,1,0,0)">
				<g>
					<path d="M285,174h1v5h-1V174z"/>
					<path d="M285.5,169c1.381,0,2.5,1.344,2.5,3s-1.119,3-2.5,3v-1c0.828,0,1.5-0.896,1.5-2s-0.672-2-1.5-2s-1.5,0.896-1.5,2
						s0.672,2,1.5,2v1c-1.381,0-2.5-1.344-2.5-3S284.119,169,285.5,169z"/>
				</g>
			</g>
		</g>
		<g>
			<g id="Si7gupcxiwp_71_" transform="matrix(1,0,0,1,0,0)">
				<g>
					<path d="M59,155l-2,6v1h2v3h1v-3h2v-1l-2-6H59z M59.5,156l1.5,5h-3L59.5,156z"/>
				</g>
			</g>
		</g>
		<g>
			<g id="Si7gupcxiwp_72_" transform="matrix(1,0,0,1,0,0)">
				<g>
					<path d="M73,165l-2,6v1h2v3h1v-3h2v-1l-2-6H73z M73.5,166l1.5,5h-3L73.5,166z"/>
				</g>
			</g>
		</g>
		<g>
			<g id="Si7gupcxiwq_65_" transform="matrix(1,0,0,1,0,0)">
				<g>
					<path d="M96,161h1v5h-1V161z"/>
					<path d="M96.5,156c1.381,0,2.5,1.344,2.5,3s-1.119,3-2.5,3v-1c0.829,0,1.5-0.896,1.5-2s-0.671-2-1.5-2s-1.5,0.896-1.5,2
						s0.671,2,1.5,2v1c-1.381,0-2.5-1.344-2.5-3S95.119,156,96.5,156z"/>
				</g>
			</g>
		</g>
		<g>
			<g id="Si7gupcxiwp_73_" transform="matrix(1,0,0,1,0,0)">
				<g>
					<path d="M115,160l-2,6v1h2v3h1v-3h2v-1l-2-6H115z M115.5,161l1.5,5h-3L115.5,161z"/>
				</g>
			</g>
		</g>
		<g>
			<g id="Si7gupcxiwp_74_" transform="matrix(1,0,0,1,0,0)">
				<g>
					<path d="M133,164l-2,6v1h2v3h1v-3h2v-1l-2-6H133z M133.5,165l1.5,5h-3L133.5,165z"/>
				</g>
			</g>
		</g>
		<g>
			<g id="Si7gupcxiwq_66_" transform="matrix(1,0,0,1,0,0)">
				<g>
					<path d="M165,168h1v5h-1V168z"/>
					<path d="M165.5,163c1.381,0,2.5,1.344,2.5,3s-1.119,3-2.5,3v-1c0.828,0,1.5-0.896,1.5-2s-0.672-2-1.5-2s-1.5,0.896-1.5,2
						s0.672,2,1.5,2v1c-1.381,0-2.5-1.344-2.5-3S164.119,163,165.5,163z"/>
				</g>
			</g>
		</g>
		<g>
			<g id="Si7gupcxiwq_67_" transform="matrix(1,0,0,1,0,0)">
				<g>
					<path d="M188,156h1v5h-1V156z"/>
					<path d="M188.5,151c1.381,0,2.5,1.344,2.5,3s-1.119,3-2.5,3v-1c0.828,0,1.5-0.896,1.5-2s-0.672-2-1.5-2s-1.5,0.896-1.5,2
						s0.672,2,1.5,2v1c-1.381,0-2.5-1.344-2.5-3S187.119,151,188.5,151z"/>
				</g>
			</g>
		</g>
		<g>
			<g id="Si7gupcxiwq_68_" transform="matrix(1,0,0,1,0,0)">
				<g>
					<path d="M203,165h1v5h-1V165z"/>
					<path d="M203.5,160c1.381,0,2.5,1.344,2.5,3s-1.119,3-2.5,3v-1c0.828,0,1.5-0.896,1.5-2s-0.672-2-1.5-2s-1.5,0.896-1.5,2
						s0.672,2,1.5,2v1c-1.381,0-2.5-1.344-2.5-3S202.119,160,203.5,160z"/>
				</g>
			</g>
		</g>
		<g>
			<g id="Si7gupcxiwq_69_" transform="matrix(1,0,0,1,0,0)">
				<g>
					<path d="M233,155h1v5h-1V155z"/>
					<path d="M233.5,150c1.381,0,2.5,1.344,2.5,3s-1.119,3-2.5,3v-1c0.828,0,1.5-0.896,1.5-2s-0.672-2-1.5-2s-1.5,0.896-1.5,2
						s0.672,2,1.5,2v1c-1.381,0-2.5-1.344-2.5-3S232.119,150,233.5,150z"/>
				</g>
			</g>
		</g>
		<g>
			<g id="Si7gupcxiwq_70_" transform="matrix(1,0,0,1,0,0)">
				<g>
					<path d="M-23,155h1v5h-1V155z"/>
					<path d="M-22.5,150c1.381,0,2.5,1.344,2.5,3s-1.119,3-2.5,3v-1c0.829,0,1.5-0.896,1.5-2s-0.671-2-1.5-2s-1.5,0.896-1.5,2
						s0.671,2,1.5,2v1c-1.381,0-2.5-1.344-2.5-3S-23.881,150-22.5,150z"/>
				</g>
			</g>
		</g>
		<g>
			<g id="Si7gupcxiwq_71_" transform="matrix(1,0,0,1,0,0)">
				<g>
					<path d="M256,161h1v5h-1V161z"/>
					<path d="M256.5,156c1.381,0,2.5,1.344,2.5,3s-1.119,3-2.5,3v-1c0.828,0,1.5-0.896,1.5-2s-0.672-2-1.5-2s-1.5,0.896-1.5,2
						s0.672,2,1.5,2v1c-1.381,0-2.5-1.344-2.5-3S255.119,156,256.5,156z"/>
				</g>
			</g>
		</g>
		<g>
			<g id="Si7gupcxiwq_72_" transform="matrix(1,0,0,1,0,0)">
				<g>
					<path d="M0,161h1v5H0V161z"/>
					<path d="M0.5,156c1.381,0,2.5,1.344,2.5,3s-1.119,3-2.5,3v-1c0.829,0,1.5-0.896,1.5-2s-0.671-2-1.5-2s-1.5,0.896-1.5,2
						s0.671,2,1.5,2v1c-1.381,0-2.5-1.344-2.5-3S-0.881,156,0.5,156z"/>
				</g>
			</g>
		</g>
		<g>
			<g id="Si7gupcxiwp_75_" transform="matrix(1,0,0,1,0,0)">
				<g>
					<path d="M3,187l-2,6v1h2v3h1v-3h2v-1l-2-6H3z M3.5,188l1.5,5H2L3.5,188z"/>
				</g>
			</g>
		</g>
		<g>
			<g id="Si7gupcxiwp_76_" transform="matrix(1,0,0,1,0,0)">
				<g>
					<path d="M259,187l-2,6v1h2v3h1v-3h2v-1l-2-6H259z M259.5,188l1.5,5h-3L259.5,188z"/>
				</g>
			</g>
		</g>
		<g>
			<g id="Si7gupcxiwq_73_" transform="matrix(1,0,0,1,0,0)">
				<g>
					<path d="M42,182h1v5h-1V182z"/>
					<path d="M42.5,177c1.381,0,2.5,1.344,2.5,3s-1.119,3-2.5,3v-1c0.829,0,1.5-0.896,1.5-2s-0.671-2-1.5-2s-1.5,0.896-1.5,2
						s0.671,2,1.5,2v1c-1.381,0-2.5-1.344-2.5-3S41.119,177,42.5,177z"/>
				</g>
			</g>
		</g>
		<g>
			<g id="Si7gupcxiwp_77_" transform="matrix(1,0,0,1,0,0)">
				<g>
					<path d="M55,187l-2,6v1h2v3h1v-3h2v-1l-2-6H55z M55.5,188l1.5,5h-3L55.5,188z"/>
				</g>
			</g>
		</g>
		<g>
			<g id="Si7gupcxiwp_78_" transform="matrix(1,0,0,1,0,0)">
				<g>
					<path d="M85,176l-2,6v1h2v3h1v-3h2v-1l-2-6H85z M85.5,177l1.5,5h-3L85.5,177z"/>
				</g>
			</g>
		</g>
		<g>
			<g id="Si7gupcxiwq_74_" transform="matrix(1,0,0,1,0,0)">
				<g>
					<path d="M99,193h1v5h-1V193z"/>
					<path d="M99.5,188c1.381,0,2.5,1.344,2.5,3s-1.119,3-2.5,3v-1c0.829,0,1.5-0.896,1.5-2s-0.671-2-1.5-2s-1.5,0.896-1.5,2
						s0.671,2,1.5,2v1c-1.381,0-2.5-1.344-2.5-3S98.119,188,99.5,188z"/>
				</g>
			</g>
		</g>
		<g>
			<g id="Si7gupcxiwq_75_" transform="matrix(1,0,0,1,0,0)">
				<g>
					<path d="M117,185h1v5h-1V185z"/>
					<path d="M117.5,180c1.381,0,2.5,1.344,2.5,3s-1.119,3-2.5,3v-1c0.829,0,1.5-0.896,1.5-2s-0.671-2-1.5-2s-1.5,0.896-1.5,2
						s0.671,2,1.5,2v1c-1.381,0-2.5-1.344-2.5-3S116.119,180,117.5,180z"/>
				</g>
			</g>
		</g>
		<g>
			<g id="Si7gupcxiwp_79_" transform="matrix(1,0,0,1,0,0)">
				<g>
					<path d="M148,174l-2,6v1h2v3h1v-3h2v-1l-2-6H148z M148.5,175l1.5,5h-3L148.5,175z"/>
				</g>
			</g>
		</g>
		<g>
			<g id="Si7gupcxiwp_80_" transform="matrix(1,0,0,1,0,0)">
				<g>
					<path d="M166,188l-2,6v1h2v3h1v-3h2v-1l-2-6H166z M166.5,189l1.5,5h-3L166.5,189z"/>
				</g>
			</g>
		</g>
		<g>
			<g id="Si7gupcxiwp_81_" transform="matrix(1,0,0,1,0,0)">
				<g>
					<path d="M181,172l-2,6v1h2v3h1v-3h2v-1l-2-6H181z M181.5,173l1.5,5h-3L181.5,173z"/>
				</g>
			</g>
		</g>
		<g>
			<g id="Si7gupcxiwp_82_" transform="matrix(1,0,0,1,0,0)">
				<g>
					<path d="M212,179l-2,6v1h2v3h1v-3h2v-1l-2-6H212z M212.5,180l1.5,5h-3L212.5,180z"/>
				</g>
			</g>
		</g>
		<g>
			<g id="Si7gupcxiwp_83_" transform="matrix(1,0,0,1,0,0)">
				<g>
					<path d="M229,175l-2,6v1h2v3h1v-3h2v-1l-2-6H229z M229.5,176l1.5,5h-3L229.5,176z"/>
				</g>
			</g>
		</g>
		<g>
			<g id="Si7gupcxiwp_84_" transform="matrix(1,0,0,1,0,0)">
				<g>
					<path d="M-27,175l-2,6v1h2v3h1v-3h2v-1l-2-6H-27z M-26.5,176l1.5,5h-3L-26.5,176z"/>
				</g>
			</g>
		</g>
		<g>
			<g id="Si7gupcxiwp_85_" transform="matrix(1,0,0,1,0,0)">
				<g>
					<path d="M245,180l-2,6v1h2v3h1v-3h2v-1l-2-6H245z M245.5,181l1.5,5h-3L245.5,181z"/>
				</g>
			</g>
		</g>
		<g>
			<g id="Si7gupcxiwp_86_" transform="matrix(1,0,0,1,0,0)">
				<g>
					<path d="M-11,180l-2,6v1h2v3h1v-3h2v-1l-2-6H-11z M-10.5,181l1.5,5h-3L-10.5,181z"/>
				</g>
			</g>
		</g>
		<g>
			<g id="Si7gupcxiwq_76_" transform="matrix(1,0,0,1,0,0)">
				<g>
					<path d="M16,203h1v5h-1V203z"/>
					<path d="M16.5,198c1.381,0,2.5,1.344,2.5,3s-1.119,3-2.5,3v-1c0.829,0,1.5-0.896,1.5-2s-0.671-2-1.5-2s-1.5,0.896-1.5,2
						s0.671,2,1.5,2v1c-1.381,0-2.5-1.344-2.5-3S15.119,198,16.5,198z"/>
				</g>
			</g>
		</g>
		<g>
			<g id="Si7gupcxiwq_77_" transform="matrix(1,0,0,1,0,0)">
				<g>
					<path d="M272,203h1v5h-1V203z"/>
					<path d="M272.5,198c1.381,0,2.5,1.344,2.5,3s-1.119,3-2.5,3v-1c0.828,0,1.5-0.896,1.5-2s-0.672-2-1.5-2s-1.5,0.896-1.5,2
						s0.672,2,1.5,2v1c-1.381,0-2.5-1.344-2.5-3S271.119,198,272.5,198z"/>
				</g>
			</g>
		</g>
		<g>
			<g id="Si7gupcxiwq_78_" transform="matrix(1,0,0,1,0,0)">
				<g>
					<path d="M29,211h1v5h-1V211z"/>
					<path d="M29.5,206c1.381,0,2.5,1.344,2.5,3s-1.119,3-2.5,3v-1c0.829,0,1.5-0.896,1.5-2s-0.671-2-1.5-2s-1.5,0.896-1.5,2
						s0.671,2,1.5,2v1c-1.381,0-2.5-1.344-2.5-3S28.119,206,29.5,206z"/>
				</g>
			</g>
		</g>
		<g>
			<g id="Si7gupcxiwq_79_" transform="matrix(1,0,0,1,0,0)">
				<g>
					<path d="M285,211h1v5h-1V211z"/>
					<path d="M285.5,206c1.381,0,2.5,1.344,2.5,3s-1.119,3-2.5,3v-1c0.828,0,1.5-0.896,1.5-2s-0.672-2-1.5-2s-1.5,0.896-1.5,2
						s0.672,2,1.5,2v1c-1.381,0-2.5-1.344-2.5-3S284.119,206,285.5,206z"/>
				</g>
			</g>
		</g>
		<g>
			<g id="Si7gupcxiwp_87_" transform="matrix(1,0,0,1,0,0)">
				<g>
					<path d="M47,204l-2,6v1h2v3h1v-3h2v-1l-2-6H47z M47.5,205l1.5,5h-3L47.5,205z"/>
				</g>
			</g>
		</g>
		<g>
			<g id="Si7gupcxiwq_80_" transform="matrix(1,0,0,1,0,0)">
				<g>
					<path d="M71,204h1v5h-1V204z"/>
					<path d="M71.5,199c1.381,0,2.5,1.344,2.5,3s-1.119,3-2.5,3v-1c0.829,0,1.5-0.896,1.5-2s-0.671-2-1.5-2s-1.5,0.896-1.5,2
						s0.671,2,1.5,2v1c-1.381,0-2.5-1.344-2.5-3S70.119,199,71.5,199z"/>
				</g>
			</g>
		</g>
		<g>
			<g id="Si7gupcxiwp_88_" transform="matrix(1,0,0,1,0,0)">
				<g>
					<path d="M89,208l-2,6v1h2v3h1v-3h2v-1l-2-6H89z M89.5,209l1.5,5h-3L89.5,209z"/>
				</g>
			</g>
		</g>
		<g>
			<g id="Si7gupcxiwq_81_" transform="matrix(1,0,0,1,0,0)">
				<g>
					<path d="M120,206h1v5h-1V206z"/>
					<path d="M120.5,201c1.381,0,2.5,1.344,2.5,3s-1.119,3-2.5,3v-1c0.829,0,1.5-0.896,1.5-2s-0.671-2-1.5-2s-1.5,0.896-1.5,2
						s0.671,2,1.5,2v1c-1.381,0-2.5-1.344-2.5-3S119.119,201,120.5,201z"/>
				</g>
			</g>
		</g>
		<g>
			<g id="Si7gupcxiwp_89_" transform="matrix(1,0,0,1,0,0)">
				<g>
					<path d="M136,196l-2,6v1h2v3h1v-3h2v-1l-2-6H136z M136.5,197l1.5,5h-3L136.5,197z"/>
				</g>
			</g>
		</g>
		<g>
			<g id="Si7gupcxiwp_90_" transform="matrix(1,0,0,1,0,0)">
				<g>
					<path d="M154,206l-2,6v1h2v3h1v-3h2v-1l-2-6H154z M154.5,207l1.5,5h-3L154.5,207z"/>
				</g>
			</g>
		</g>
		<g>
			<g id="Si7gupcxiwq_82_" transform="matrix(1,0,0,1,0,0)">
				<g>
					<path d="M183,198h1v5h-1V198z"/>
					<path d="M183.5,193c1.381,0,2.5,1.344,2.5,3s-1.119,3-2.5,3v-1c0.828,0,1.5-0.896,1.5-2s-0.672-2-1.5-2s-1.5,0.896-1.5,2
						s0.672,2,1.5,2v1c-1.381,0-2.5-1.344-2.5-3S182.119,193,183.5,193z"/>
				</g>
			</g>
		</g>
		<g>
			<g id="Si7gupcxiwq_83_" transform="matrix(1,0,0,1,0,0)">
				<g>
					<path d="M195,206h1v5h-1V206z"/>
					<path d="M195.5,201c1.381,0,2.5,1.344,2.5,3s-1.119,3-2.5,3v-1c0.828,0,1.5-0.896,1.5-2s-0.672-2-1.5-2s-1.5,0.896-1.5,2
						s0.672,2,1.5,2v1c-1.381,0-2.5-1.344-2.5-3S194.119,201,195.5,201z"/>
				</g>
			</g>
		</g>
		<g>
			<g id="Si7gupcxiwq_84_" transform="matrix(1,0,0,1,0,0)">
				<g>
					<path d="M227,212h1v5h-1V212z"/>
					<path d="M227.5,207c1.381,0,2.5,1.344,2.5,3s-1.119,3-2.5,3v-1c0.828,0,1.5-0.896,1.5-2s-0.672-2-1.5-2s-1.5,0.896-1.5,2
						s0.672,2,1.5,2v1c-1.381,0-2.5-1.344-2.5-3S226.119,207,227.5,207z"/>
				</g>
			</g>
		</g>
		<g>
			<g id="Si7gupcxiwq_85_" transform="matrix(1,0,0,1,0,0)">
				<g>
					<path d="M-29,212h1v5h-1V212z"/>
					<path d="M-28.5,207c1.381,0,2.5,1.344,2.5,3s-1.119,3-2.5,3v-1c0.829,0,1.5-0.896,1.5-2s-0.671-2-1.5-2s-1.5,0.896-1.5,2
						s0.671,2,1.5,2v1c-1.381,0-2.5-1.344-2.5-3S-29.881,207-28.5,207z"/>
				</g>
			</g>
		</g>
		<g>
			<g id="Si7gupcxiwp_91_" transform="matrix(1,0,0,1,0,0)">
				<g>
					<path d="M241,204l-2,6v1h2v3h1v-3h2v-1l-2-6H241z M241.5,205l1.5,5h-3L241.5,205z"/>
				</g>
			</g>
		</g>
		<g>
			<g id="Si7gupcxiwp_92_" transform="matrix(1,0,0,1,0,0)">
				<g>
					<path d="M-15,204l-2,6v1h2v3h1v-3h2v-1l-2-6H-15z M-14.5,205l1.5,5h-3L-14.5,205z"/>
				</g>
			</g>
		</g>
		<g>
			<g id="Si7gupcxiwq_86_" transform="matrix(1,0,0,1,0,0)">
				<g>
					<path d="M9,235h1v5H9V235z"/>
					<path d="M9.5,230c1.381,0,2.5,1.344,2.5,3s-1.119,3-2.5,3v-1c0.829,0,1.5-0.896,1.5-2s-0.671-2-1.5-2S8,231.896,8,233
						s0.671,2,1.5,2v1c-1.381,0-2.5-1.344-2.5-3S8.119,230,9.5,230z"/>
				</g>
			</g>
		</g>
		<g>
			<g id="Si7gupcxiwq_87_" transform="matrix(1,0,0,1,0,0)">
				<g>
					<path d="M265,235h1v5h-1V235z"/>
					<path d="M265.5,230c1.381,0,2.5,1.344,2.5,3s-1.119,3-2.5,3v-1c0.828,0,1.5-0.896,1.5-2s-0.672-2-1.5-2s-1.5,0.896-1.5,2
						s0.672,2,1.5,2v1c-1.381,0-2.5-1.344-2.5-3S264.119,230,265.5,230z"/>
				</g>
			</g>
		</g>
		<g>
			<g id="Si7gupcxiwq_88_" transform="matrix(1,0,0,1,0,0)">
				<g>
					<path d="M265-21h1v5h-1V-21z"/>
					<path d="M265.5-26c1.381,0,2.5,1.343,2.5,3s-1.119,3-2.5,3v-1c0.828,0,1.5-0.896,1.5-2s-0.672-2-1.5-2s-1.5,0.896-1.5,2
						s0.672,2,1.5,2v1c-1.381,0-2.5-1.343-2.5-3S264.119-26,265.5-26z"/>
				</g>
			</g>
		</g>
		<g>
			<g id="Si7gupcxiwq_89_" transform="matrix(1,0,0,1,0,0)">
				<g>
					<path d="M9-21h1v5H9V-21z"/>
					<path d="M9.5-26c1.381,0,2.5,1.343,2.5,3s-1.119,3-2.5,3v-1c0.829,0,1.5-0.896,1.5-2s-0.671-2-1.5-2S8-24.104,8-23
						s0.671,2,1.5,2v1C8.119-20,7-21.343,7-23S8.119-26,9.5-26z"/>
				</g>
			</g>
		</g>
		<g>
			<g id="Si7gupcxiwq_90_" transform="matrix(1,0,0,1,0,0)">
				<g>
					<path d="M265-21h1v5h-1V-21z"/>
					<path d="M265.5-26c1.381,0,2.5,1.343,2.5,3s-1.119,3-2.5,3v-1c0.828,0,1.5-0.896,1.5-2s-0.672-2-1.5-2s-1.5,0.896-1.5,2
						s0.672,2,1.5,2v1c-1.381,0-2.5-1.343-2.5-3S264.119-26,265.5-26z"/>
				</g>
			</g>
		</g>
		<g>
			<g id="Si7gupcxiwq_91_" transform="matrix(1,0,0,1,0,0)">
				<g>
					<path d="M31,234h1v5h-1V234z"/>
					<path d="M31.5,229c1.381,0,2.5,1.344,2.5,3s-1.119,3-2.5,3v-1c0.829,0,1.5-0.896,1.5-2s-0.671-2-1.5-2s-1.5,0.896-1.5,2
						s0.671,2,1.5,2v1c-1.381,0-2.5-1.344-2.5-3S30.119,229,31.5,229z"/>
				</g>
			</g>
		</g>
		<g>
			<g id="Si7gupcxiwq_92_" transform="matrix(1,0,0,1,0,0)">
				<g>
					<path d="M287,234h1v5h-1V234z"/>
					<path d="M287.5,229c1.381,0,2.5,1.344,2.5,3s-1.119,3-2.5,3v-1c0.828,0,1.5-0.896,1.5-2s-0.672-2-1.5-2s-1.5,0.896-1.5,2
						s0.672,2,1.5,2v1c-1.381,0-2.5-1.344-2.5-3S286.119,229,287.5,229z"/>
				</g>
			</g>
		</g>
		<g>
			<g id="Si7gupcxiwq_93_" transform="matrix(1,0,0,1,0,0)">
				<g>
					<path d="M287-22h1v5h-1V-22z"/>
					<path d="M287.5-27c1.381,0,2.5,1.343,2.5,3s-1.119,3-2.5,3v-1c0.828,0,1.5-0.896,1.5-2s-0.672-2-1.5-2s-1.5,0.896-1.5,2
						s0.672,2,1.5,2v1c-1.381,0-2.5-1.343-2.5-3S286.119-27,287.5-27z"/>
				</g>
			</g>
		</g>
		<g>
			<g id="Si7gupcxiwq_94_" transform="matrix(1,0,0,1,0,0)">
				<g>
					<path d="M31-22h1v5h-1V-22z"/>
					<path d="M31.5-27c1.381,0,2.5,1.343,2.5,3s-1.119,3-2.5,3v-1c0.829,0,1.5-0.896,1.5-2s-0.671-2-1.5-2S30-25.104,30-24
						s0.671,2,1.5,2v1c-1.381,0-2.5-1.343-2.5-3S30.119-27,31.5-27z"/>
				</g>
			</g>
		</g>
		<g>
			<g id="Si7gupcxiwq_95_" transform="matrix(1,0,0,1,0,0)">
				<g>
					<path d="M287-22h1v5h-1V-22z"/>
					<path d="M287.5-27c1.381,0,2.5,1.343,2.5,3s-1.119,3-2.5,3v-1c0.828,0,1.5-0.896,1.5-2s-0.672-2-1.5-2s-1.5,0.896-1.5,2
						s0.672,2,1.5,2v1c-1.381,0-2.5-1.343-2.5-3S286.119-27,287.5-27z"/>
				</g>
			</g>
		</g>
		<g>
			<g id="Si7gupcxiwq_96_" transform="matrix(1,0,0,1,0,0)">
				<g>
					<path d="M58,224h1v5h-1V224z"/>
					<path d="M58.5,219c1.381,0,2.5,1.344,2.5,3s-1.119,3-2.5,3v-1c0.829,0,1.5-0.896,1.5-2s-0.671-2-1.5-2s-1.5,0.896-1.5,2
						s0.671,2,1.5,2v1c-1.381,0-2.5-1.344-2.5-3S57.119,219,58.5,219z"/>
				</g>
			</g>
		</g>
		<g>
			<g id="Si7gupcxiwq_97_" transform="matrix(1,0,0,1,0,0)">
				<g>
					<path d="M65,235h1v5h-1V235z"/>
					<path d="M65.5,230c1.381,0,2.5,1.344,2.5,3s-1.119,3-2.5,3v-1c0.829,0,1.5-0.896,1.5-2s-0.671-2-1.5-2s-1.5,0.896-1.5,2
						s0.671,2,1.5,2v1c-1.381,0-2.5-1.344-2.5-3S64.119,230,65.5,230z"/>
				</g>
			</g>
		</g>
		<g>
			<g id="Si7gupcxiwq_98_" transform="matrix(1,0,0,1,0,0)">
				<g>
					<path d="M65-21h1v5h-1V-21z"/>
					<path d="M65.5-26c1.381,0,2.5,1.343,2.5,3s-1.119,3-2.5,3v-1c0.829,0,1.5-0.896,1.5-2s-0.671-2-1.5-2S64-24.104,64-23
						s0.671,2,1.5,2v1c-1.381,0-2.5-1.343-2.5-3S64.119-26,65.5-26z"/>
				</g>
			</g>
		</g>
		<g>
			<g id="Si7gupcxiwq_99_" transform="matrix(1,0,0,1,0,0)">
				<g>
					<path d="M95,224h1v5h-1V224z"/>
					<path d="M95.5,219c1.381,0,2.5,1.344,2.5,3s-1.119,3-2.5,3v-1c0.829,0,1.5-0.896,1.5-2s-0.671-2-1.5-2s-1.5,0.896-1.5,2
						s0.671,2,1.5,2v1c-1.381,0-2.5-1.344-2.5-3S94.119,219,95.5,219z"/>
				</g>
			</g>
		</g>
		<g>
			<g id="Si7gupcxiwq_100_" transform="matrix(1,0,0,1,0,0)">
				<g>
					<path d="M126,227h1v5h-1V227z"/>
					<path d="M126.5,222c1.381,0,2.5,1.344,2.5,3s-1.119,3-2.5,3v-1c0.829,0,1.5-0.896,1.5-2s-0.671-2-1.5-2s-1.5,0.896-1.5,2
						s0.671,2,1.5,2v1c-1.381,0-2.5-1.344-2.5-3S125.119,222,126.5,222z"/>
				</g>
			</g>
		</g>
		<g>
			<g id="Si7gupcxiwq_101_" transform="matrix(1,0,0,1,0,0)">
				<g>
					<path d="M143,232h1v5h-1V232z"/>
					<path d="M143.5,227c1.381,0,2.5,1.344,2.5,3s-1.119,3-2.5,3v-1c0.828,0,1.5-0.896,1.5-2s-0.672-2-1.5-2s-1.5,0.896-1.5,2
						s0.672,2,1.5,2v1c-1.381,0-2.5-1.344-2.5-3S142.119,227,143.5,227z"/>
				</g>
			</g>
		</g>
		<g>
			<g id="Si7gupcxiwq_102_" transform="matrix(1,0,0,1,0,0)">
				<g>
					<path d="M143-24h1v5h-1V-24z"/>
					<path d="M143.5-29c1.381,0,2.5,1.343,2.5,3s-1.119,3-2.5,3v-1c0.828,0,1.5-0.896,1.5-2s-0.672-2-1.5-2s-1.5,0.896-1.5,2
						s0.672,2,1.5,2v1c-1.381,0-2.5-1.343-2.5-3S142.119-29,143.5-29z"/>
				</g>
			</g>
		</g>
		<g>
			<g id="Si7gupcxiwq_103_" transform="matrix(1,0,0,1,0,0)">
				<g>
					<path d="M165,224h1v5h-1V224z"/>
					<path d="M165.5,219c1.381,0,2.5,1.344,2.5,3s-1.119,3-2.5,3v-1c0.828,0,1.5-0.896,1.5-2s-0.672-2-1.5-2s-1.5,0.896-1.5,2
						s0.672,2,1.5,2v1c-1.381,0-2.5-1.344-2.5-3S164.119,219,165.5,219z"/>
				</g>
			</g>
		</g>
		<g>
			<g id="Si7gupcxiwq_104_" transform="matrix(1,0,0,1,0,0)">
				<g>
					<path d="M195,236h1v5h-1V236z"/>
					<path d="M195.5,231c1.381,0,2.5,1.344,2.5,3s-1.119,3-2.5,3v-1c0.828,0,1.5-0.896,1.5-2s-0.672-2-1.5-2s-1.5,0.896-1.5,2
						s0.672,2,1.5,2v1c-1.381,0-2.5-1.344-2.5-3S194.119,231,195.5,231z"/>
				</g>
			</g>
		</g>
		<g>
			<g id="Si7gupcxiwq_105_" transform="matrix(1,0,0,1,0,0)">
				<g>
					<path d="M195-20h1v5h-1V-20z"/>
					<path d="M195.5-25c1.381,0,2.5,1.343,2.5,3s-1.119,3-2.5,3v-1c0.828,0,1.5-0.896,1.5-2s-0.672-2-1.5-2s-1.5,0.896-1.5,2
						s0.672,2,1.5,2v1c-1.381,0-2.5-1.343-2.5-3S194.119-25,195.5-25z"/>
				</g>
			</g>
		</g>
		<g>
			<g id="Si7gupcxiwp_93_" transform="matrix(1,0,0,1,0,0)">
				<g>
					<path d="M207,214l-2,6v1h2v3h1v-3h2v-1l-2-6H207z M207.5,215l1.5,5h-3L207.5,215z"/>
				</g>
			</g>
		</g>
		<g>
			<g id="Si7gupcxiwq_106_" transform="matrix(1,0,0,1,0,0)">
				<g>
					<path d="M227,231h1v5h-1V231z"/>
					<path d="M227.5,226c1.381,0,2.5,1.344,2.5,3s-1.119,3-2.5,3v-1c0.828,0,1.5-0.896,1.5-2s-0.672-2-1.5-2s-1.5,0.896-1.5,2
						s0.672,2,1.5,2v1c-1.381,0-2.5-1.344-2.5-3S226.119,226,227.5,226z"/>
				</g>
			</g>
		</g>
		<g>
			<g id="Si7gupcxiwq_107_" transform="matrix(1,0,0,1,0,0)">
				<g>
					<path d="M-29,231h1v5h-1V231z"/>
					<path d="M-28.5,226c1.381,0,2.5,1.344,2.5,3s-1.119,3-2.5,3v-1c0.829,0,1.5-0.896,1.5-2s-0.671-2-1.5-2s-1.5,0.896-1.5,2
						s0.671,2,1.5,2v1c-1.381,0-2.5-1.344-2.5-3S-29.881,226-28.5,226z"/>
				</g>
			</g>
		</g>
		<g>
			<g id="Si7gupcxiwq_108_" transform="matrix(1,0,0,1,0,0)">
				<g>
					<path d="M-29-25h1v5h-1V-25z"/>
					<path d="M-28.5-30c1.381,0,2.5,1.343,2.5,3s-1.119,3-2.5,3v-1c0.829,0,1.5-0.896,1.5-2s-0.671-2-1.5-2s-1.5,0.896-1.5,2
						s0.671,2,1.5,2v1c-1.381,0-2.5-1.343-2.5-3S-29.881-30-28.5-30z"/>
				</g>
			</g>
		</g>
		<g>
			<g id="Si7gupcxiwq_109_" transform="matrix(1,0,0,1,0,0)">
				<g>
					<path d="M227-25h1v5h-1V-25z"/>
					<path d="M227.5-30c1.381,0,2.5,1.343,2.5,3s-1.119,3-2.5,3v-1c0.828,0,1.5-0.896,1.5-2s-0.672-2-1.5-2s-1.5,0.896-1.5,2
						s0.672,2,1.5,2v1c-1.381,0-2.5-1.343-2.5-3S226.119-30,227.5-30z"/>
				</g>
			</g>
		</g>
		<g>
			<g id="Si7gupcxiwq_110_" transform="matrix(1,0,0,1,0,0)">
				<g>
					<path d="M-29-25h1v5h-1V-25z"/>
					<path d="M-28.5-30c1.381,0,2.5,1.343,2.5,3s-1.119,3-2.5,3v-1c0.829,0,1.5-0.896,1.5-2s-0.671-2-1.5-2s-1.5,0.896-1.5,2
						s0.671,2,1.5,2v1c-1.381,0-2.5-1.343-2.5-3S-29.881-30-28.5-30z"/>
				</g>
			</g>
		</g>
		<g>
			<g id="Si7gupcxiwp_94_" transform="matrix(1,0,0,1,0,0)">
				<g>
					<path d="M256,219l-2,6v1h2v3h1v-3h2v-1l-2-6H256z M256.5,220l1.5,5h-3L256.5,220z"/>
				</g>
			</g>
		</g>
		<g>
			<g id="Si7gupcxiwp_95_" transform="matrix(1,0,0,1,0,0)">
				<g>
					<path d="M0,219l-2,6v1h2v3h1v-3h2v-1l-2-6H0z M0.5,220l1.5,5h-3L0.5,220z"/>
				</g>
			</g>
		</g>
		<g>
			<g id="Si7gupcxiwp_96_" transform="matrix(1,0,0,1,0,0)">
				<g>
					<path d="M12,255l-2,6v1h2v3h1v-3h2v-1l-2-6H12z M12.5,256l1.5,5h-3L12.5,256z"/>
				</g>
			</g>
		</g>
		<g>
			<g id="Si7gupcxiwp_97_" transform="matrix(1,0,0,1,0,0)">
				<g>
					<path d="M268,255l-2,6v1h2v3h1v-3h2v-1l-2-6H268z M268.5,256l1.5,5h-3L268.5,256z"/>
				</g>
			</g>
		</g>
		<g>
			<g id="Si7gupcxiwp_98_" transform="matrix(1,0,0,1,0,0)">
				<g>
					<path d="M268-1l-2,6v1h2v3h1V6h2V5l-2-6H268z M268.5,0l1.5,5h-3L268.5,0z"/>
				</g>
			</g>
		</g>
		<g>
			<g id="Si7gupcxiwp_99_" transform="matrix(1,0,0,1,0,0)">
				<g>
					<path d="M12-1l-2,6v1h2v3h1V6h2V5l-2-6H12z M12.5,0L14,5h-3L12.5,0z"/>
				</g>
			</g>
		</g>
		<g>
			<g id="Si7gupcxiwp_100_" transform="matrix(1,0,0,1,0,0)">
				<g>
					<path d="M268-1l-2,6v1h2v3h1V6h2V5l-2-6H268z M268.5,0l1.5,5h-3L268.5,0z"/>
				</g>
			</g>
		</g>
		<g>
			<g id="Si7gupcxiwp_101_" transform="matrix(1,0,0,1,0,0)">
				<g>
					<path d="M38,243l-2,6v1h2v3h1v-3h2v-1l-2-6H38z M38.5,244l1.5,5h-3L38.5,244z"/>
				</g>
			</g>
		</g>
		<g>
			<g id="Si7gupcxiwp_102_" transform="matrix(1,0,0,1,0,0)">
				<g>
					<path d="M38-13l-2,6v1h2v3h1v-3h2v-1l-2-6H38z M38.5-12L40-7h-3L38.5-12z"/>
				</g>
			</g>
		</g>
		<g>
			<g id="Si7gupcxiwp_103_" transform="matrix(1,0,0,1,0,0)">
				<g>
					<path d="M69,249l-2,6v1h2v3h1v-3h2v-1l-2-6H69z M69.5,250l1.5,5h-3L69.5,250z"/>
				</g>
			</g>
		</g>
		<g>
			<g id="Si7gupcxiwp_104_" transform="matrix(1,0,0,1,0,0)">
				<g>
					<path d="M69-7l-2,6v1h2v3h1V0h2v-1l-2-6H69z M69.5-6L71-1h-3L69.5-6z"/>
				</g>
			</g>
		</g>
		<g>
			<g id="Si7gupcxiwq_111_" transform="matrix(1,0,0,1,0,0)">
				<g>
					<path d="M84,247h1v5h-1V247z"/>
					<path d="M84.5,242c1.381,0,2.5,1.344,2.5,3s-1.119,3-2.5,3v-1c0.829,0,1.5-0.896,1.5-2s-0.671-2-1.5-2s-1.5,0.896-1.5,2
						s0.671,2,1.5,2v1c-1.381,0-2.5-1.344-2.5-3S83.119,242,84.5,242z"/>
				</g>
			</g>
		</g>
		<g>
			<g id="Si7gupcxiwq_112_" transform="matrix(1,0,0,1,0,0)">
				<g>
					<path d="M84-9h1v5h-1V-9z"/>
					<path d="M84.5-14c1.381,0,2.5,1.343,2.5,3s-1.119,3-2.5,3v-1c0.829,0,1.5-0.896,1.5-2s-0.671-2-1.5-2S83-12.104,83-11
						s0.671,2,1.5,2v1C83.119-8,82-9.343,82-11S83.119-14,84.5-14z"/>
				</g>
			</g>
		</g>
		<g>
			<g id="Si7gupcxiwp_105_" transform="matrix(1,0,0,1,0,0)">
				<g>
					<path d="M101,249l-2,6v1h2v3h1v-3h2v-1l-2-6H101z M101.5,250l1.5,5h-3L101.5,250z"/>
				</g>
			</g>
		</g>
		<g>
			<g id="Si7gupcxiwp_106_" transform="matrix(1,0,0,1,0,0)">
				<g>
					<path d="M101-7l-2,6v1h2v3h1V0h2v-1l-2-6H101z M101.5-6l1.5,5h-3L101.5-6z"/>
				</g>
			</g>
		</g>
		<g>
			<g id="Si7gupcxiwq_113_" transform="matrix(1,0,0,1,0,0)">
				<g>
					<path d="M116,241h1v5h-1V241z"/>
					<path d="M116.5,236c1.381,0,2.5,1.344,2.5,3s-1.119,3-2.5,3v-1c0.829,0,1.5-0.896,1.5-2s-0.671-2-1.5-2s-1.5,0.896-1.5,2
						s0.671,2,1.5,2v1c-1.381,0-2.5-1.344-2.5-3S115.119,236,116.5,236z"/>
				</g>
			</g>
		</g>
		<g>
			<g id="Si7gupcxiwq_114_" transform="matrix(1,0,0,1,0,0)">
				<g>
					<path d="M116-15h1v5h-1V-15z"/>
					<path d="M116.5-20c1.381,0,2.5,1.343,2.5,3s-1.119,3-2.5,3v-1c0.829,0,1.5-0.896,1.5-2s-0.671-2-1.5-2s-1.5,0.896-1.5,2
						s0.671,2,1.5,2v1c-1.381,0-2.5-1.343-2.5-3S115.119-20,116.5-20z"/>
				</g>
			</g>
		</g>
		<g>
			<g id="Si7gupcxiwp_107_" transform="matrix(1,0,0,1,0,0)">
				<g>
					<path d="M147,245l-2,6v1h2v3h1v-3h2v-1l-2-6H147z M147.5,246l1.5,5h-3L147.5,246z"/>
				</g>
			</g>
		</g>
		<g>
			<g id="Si7gupcxiwp_108_" transform="matrix(1,0,0,1,0,0)">
				<g>
					<path d="M147-11l-2,6v1h2v3h1v-3h2v-1l-2-6H147z M147.5-10l1.5,5h-3L147.5-10z"/>
				</g>
			</g>
		</g>
		<g>
			<g id="Si7gupcxiwp_109_" transform="matrix(1,0,0,1,0,0)">
				<g>
					<path d="M168,247l-2,6v1h2v3h1v-3h2v-1l-2-6H168z M168.5,248l1.5,5h-3L168.5,248z"/>
				</g>
			</g>
		</g>
		<g>
			<g id="Si7gupcxiwp_110_" transform="matrix(1,0,0,1,0,0)">
				<g>
					<path d="M168-9l-2,6v1h2v3h1v-3h2v-1l-2-6H168z M168.5-8l1.5,5h-3L168.5-8z"/>
				</g>
			</g>
		</g>
		<g>
			<g id="Si7gupcxiwp_111_" transform="matrix(1,0,0,1,0,0)">
				<g>
					<path d="M178,228l-2,6v1h2v3h1v-3h2v-1l-2-6H178z M178.5,229l1.5,5h-3L178.5,229z"/>
				</g>
			</g>
		</g>
		<g>
			<g id="Si7gupcxiwp_112_" transform="matrix(1,0,0,1,0,0)">
				<g>
					<path d="M178-28l-2,6v1h2v3h1v-3h2v-1l-2-6H178z M178.5-27l1.5,5h-3L178.5-27z"/>
				</g>
			</g>
		</g>
		<g>
			<g id="Si7gupcxiwq_115_" transform="matrix(1,0,0,1,0,0)">
				<g>
					<path d="M204,251h1v5h-1V251z"/>
					<path d="M204.5,246c1.381,0,2.5,1.344,2.5,3s-1.119,3-2.5,3v-1c0.828,0,1.5-0.896,1.5-2s-0.672-2-1.5-2s-1.5,0.896-1.5,2
						s0.672,2,1.5,2v1c-1.381,0-2.5-1.344-2.5-3S203.119,246,204.5,246z"/>
				</g>
			</g>
		</g>
		<g>
			<g id="Si7gupcxiwq_116_" transform="matrix(1,0,0,1,0,0)">
				<g>
					<path d="M204-5h1v5h-1V-5z"/>
					<path d="M204.5-10c1.381,0,2.5,1.343,2.5,3s-1.119,3-2.5,3v-1c0.828,0,1.5-0.896,1.5-2s-0.672-2-1.5-2S203-8.104,203-7
						s0.672,2,1.5,2v1c-1.381,0-2.5-1.343-2.5-3S203.119-10,204.5-10z"/>
				</g>
			</g>
		</g>
		<g>
			<g id="Si7gupcxiwq_117_" transform="matrix(1,0,0,1,0,0)">
				<g>
					<path d="M224,248h1v5h-1V248z"/>
					<path d="M224.5,243c1.381,0,2.5,1.344,2.5,3s-1.119,3-2.5,3v-1c0.828,0,1.5-0.896,1.5-2s-0.672-2-1.5-2s-1.5,0.896-1.5,2
						s0.672,2,1.5,2v1c-1.381,0-2.5-1.344-2.5-3S223.119,243,224.5,243z"/>
				</g>
			</g>
		</g>
		<g>
			<g id="Si7gupcxiwq_118_" transform="matrix(1,0,0,1,0,0)">
				<g>
					<path d="M224-8h1v5h-1V-8z"/>
					<path d="M224.5-13c1.381,0,2.5,1.343,2.5,3s-1.119,3-2.5,3v-1c0.828,0,1.5-0.896,1.5-2s-0.672-2-1.5-2s-1.5,0.896-1.5,2
						s0.672,2,1.5,2v1c-1.381,0-2.5-1.343-2.5-3S223.119-13,224.5-13z"/>
				</g>
			</g>
		</g>
		<g>
			<g id="Si7gupcxiwp_113_" transform="matrix(1,0,0,1,0,0)">
				<g>
					<path d="M240,241l-2,6v1h2v3h1v-3h2v-1l-2-6H240z M240.5,242l1.5,5h-3L240.5,242z"/>
				</g>
			</g>
		</g>
		<g>
			<g id="Si7gupcxiwp_114_" transform="matrix(1,0,0,1,0,0)">
				<g>
					<path d="M-16,241l-2,6v1h2v3h1v-3h2v-1l-2-6H-16z M-15.5,242l1.5,5h-3L-15.5,242z"/>
				</g>
			</g>
		</g>
		<g>
			<g id="Si7gupcxiwp_115_" transform="matrix(1,0,0,1,0,0)">
				<g>
					<path d="M-16-15l-2,6v1h2v3h1v-3h2v-1l-2-6H-16z M-15.5-14l1.5,5h-3L-15.5-14z"/>
				</g>
			</g>
		</g>
		<g>
			<g id="Si7gupcxiwp_116_" transform="matrix(1,0,0,1,0,0)">
				<g>
					<path d="M240-15l-2,6v1h2v3h1v-3h2v-1l-2-6H240z M240.5-14l1.5,5h-3L240.5-14z"/>
				</g>
			</g>
		</g>
		<g>
			<g id="Si7gupcxiwp_117_" transform="matrix(1,0,0,1,0,0)">
				<g>
					<path d="M-16-15l-2,6v1h2v3h1v-3h2v-1l-2-6H-16z M-15.5-14l1.5,5h-3L-15.5-14z"/>
				</g>
			</g>
		</g>
	</g>
</g>
<desc>Created with Snap</desc>
</svg>
