<?xml version="1.0" encoding="utf-8"?>
<!-- Generator: Adobe Illustrator 16.0.0, SVG Export Plug-In . SVG Version: 6.00 Build 0)  -->
<!DOCTYPE svg PUBLIC "-//W3C//DTD SVG 1.0//EN" "http://www.w3.org/TR/2001/REC-SVG-20010904/DTD/svg10.dtd">
<svg version="1.0" id="Svg" xmlns="http://www.w3.org/2000/svg" xmlns:xlink="http://www.w3.org/1999/xlink" x="0px" y="0px"
	 width="256px" height="256px" viewBox="0 0 256 256" enable-background="new 0 0 256 256" xml:space="preserve">
<g>
	<defs>
		<rect id="SVGID_1_" width="256" height="256"/>
	</defs>
	<clipPath id="SVGID_2_">
		<use xlink:href="#SVGID_1_"  overflow="visible"/>
	</clipPath>
	<g id="Pattern" clip-path="url(#SVGID_2_)">
		<g>
			<g id="Si7gusxam1ny" transform="matrix(1,0,0,1,0,0)">
				<g>
					<path d="M257,33h8l0,0v1l0,0h-8l0,0V33L257,33z"/>
				</g>
			</g>
		</g>
		<g>
			<g id="Si7gusxam1ny_1_" transform="matrix(1,0,0,1,0,0)">
				<g>
					<path d="M1,33h8l0,0v1l0,0H1l0,0V33L1,33z"/>
				</g>
			</g>
		</g>
		<g>
			<g id="Si7gusxam1ny_2_" transform="matrix(1,0,0,1,0,0)">
				<g>
					<path d="M1,289h8l0,0v1l0,0H1l0,0V289L1,289z"/>
				</g>
			</g>
		</g>
		<g>
			<g id="Si7gusxam1ny_3_" transform="matrix(1,0,0,1,0,0)">
				<g>
					<path d="M257,289h8l0,0v1l0,0h-8l0,0V289L257,289z"/>
				</g>
			</g>
		</g>
		<g>
			<g id="Si7gusxam1ny_4_" transform="matrix(1,0,0,1,0,0)">
				<g>
					<path d="M1,289h8l0,0v1l0,0H1l0,0V289L1,289z"/>
				</g>
			</g>
		</g>
		<g>
			<g id="Si7gusxam1ny_5_" transform="matrix(1,0,0,1,0,0)">
				<g>
					<path d="M24,11h8l0,0v1l0,0h-8l0,0V11L24,11z"/>
				</g>
			</g>
		</g>
		<g>
			<g id="Si7gusxam1ny_6_" transform="matrix(1,0,0,1,0,0)">
				<g>
					<path d="M280,11h8l0,0v1l0,0h-8l0,0V11L280,11z"/>
				</g>
			</g>
		</g>
		<g>
			<g id="Si7gusxam1ny_7_" transform="matrix(1,0,0,1,0,0)">
				<g>
					<path d="M280,267h8l0,0v1l0,0h-8l0,0V267L280,267z"/>
				</g>
			</g>
		</g>
		<g>
			<g id="Si7gusxam1ny_8_" transform="matrix(1,0,0,1,0,0)">
				<g>
					<path d="M24,267h8l0,0v1l0,0h-8l0,0V267L24,267z"/>
				</g>
			</g>
		</g>
		<g>
			<g id="Si7gusxam1ny_9_" transform="matrix(1,0,0,1,0,0)">
				<g>
					<path d="M280,267h8l0,0v1l0,0h-8l0,0V267L280,267z"/>
				</g>
			</g>
		</g>
		<g>
			<g id="Si7gusxam1nx" transform="matrix(1,0,0,1,0,0)">
				<g>
					<path d="M48,12h8l0,0v1l0,0h-8l0,0V12L48,12z"/>
				</g>
			</g>
		</g>
		<g>
			<g id="Si7gusxam1nx_1_" transform="matrix(1,0,0,1,0,0)">
				<g>
					<path d="M48,268h8l0,0v1l0,0h-8l0,0V268L48,268z"/>
				</g>
			</g>
		</g>
		<g>
			<g id="Si7gusxam1ny_10_" transform="matrix(1,0,0,1,0,0)">
				<g>
					<path d="M67,25h8l0,0v1l0,0h-8l0,0V25L67,25z"/>
				</g>
			</g>
		</g>
		<g>
			<g id="Si7gusxam1ny_11_" transform="matrix(1,0,0,1,0,0)">
				<g>
					<path d="M67,281h8l0,0v1l0,0h-8l0,0V281L67,281z"/>
				</g>
			</g>
		</g>
		<g>
			<g id="Si7gusxam1ny_12_" transform="matrix(1,0,0,1,0,0)">
				<g>
					<path d="M82,12h8l0,0v1l0,0h-8l0,0V12L82,12z"/>
				</g>
			</g>
		</g>
		<g>
			<g id="Si7gusxam1ny_13_" transform="matrix(1,0,0,1,0,0)">
				<g>
					<path d="M82,268h8l0,0v1l0,0h-8l0,0V268L82,268z"/>
				</g>
			</g>
		</g>
		<g>
			<g id="Si7gusxam1ny_14_" transform="matrix(1,0,0,1,0,0)">
				<g>
					<path d="M112,11h8l0,0v1l0,0h-8l0,0V11L112,11z"/>
				</g>
			</g>
		</g>
		<g>
			<g id="Si7gusxam1ny_15_" transform="matrix(1,0,0,1,0,0)">
				<g>
					<path d="M112,267h8l0,0v1l0,0h-8l0,0V267L112,267z"/>
				</g>
			</g>
		</g>
		<g>
			<g id="Si7gusxam1nx_2_" transform="matrix(1,0,0,1,0,0)">
				<g>
					<path d="M140,19h8l0,0v1l0,0h-8l0,0V19L140,19z"/>
				</g>
			</g>
		</g>
		<g>
			<g id="Si7gusxam1nx_3_" transform="matrix(1,0,0,1,0,0)">
				<g>
					<path d="M140,275h8l0,0v1l0,0h-8l0,0V275L140,275z"/>
				</g>
			</g>
		</g>
		<g>
			<g id="Si7gusxam1ny_16_" transform="matrix(1,0,0,1,0,0)">
				<g>
					<path d="M169,21h8l0,0v1l0,0h-8l0,0V21L169,21z"/>
				</g>
			</g>
		</g>
		<g>
			<g id="Si7gusxam1ny_17_" transform="matrix(1,0,0,1,0,0)">
				<g>
					<path d="M169,277h8l0,0v1l0,0h-8l0,0V277L169,277z"/>
				</g>
			</g>
		</g>
		<g>
			<g id="Si7gusxam1nx_4_" transform="matrix(1,0,0,1,0,0)">
				<g>
					<path d="M175,261h8l0,0v1l0,0h-8l0,0V261L175,261z"/>
				</g>
			</g>
		</g>
		<g>
			<g id="Si7gusxam1nx_5_" transform="matrix(1,0,0,1,0,0)">
				<g>
					<path d="M175,5h8l0,0v1l0,0h-8l0,0V5L175,5z"/>
				</g>
			</g>
		</g>
		<g>
			<g id="Si7gusxam1nx_6_" transform="matrix(1,0,0,1,0,0)">
				<g>
					<path d="M199,25h8l0,0v1l0,0h-8l0,0V25L199,25z"/>
				</g>
			</g>
		</g>
		<g>
			<g id="Si7gusxam1nx_7_" transform="matrix(1,0,0,1,0,0)">
				<g>
					<path d="M199,281h8l0,0v1l0,0h-8l0,0V281L199,281z"/>
				</g>
			</g>
		</g>
		<g>
			<g id="Si7gusxam1ny_18_" transform="matrix(1,0,0,1,0,0)">
				<g>
					<path d="M216,21h8l0,0v1l0,0h-8l0,0V21L216,21z"/>
				</g>
			</g>
		</g>
		<g>
			<g id="Si7gusxam1ny_19_" transform="matrix(1,0,0,1,0,0)">
				<g>
					<path d="M216,277h8l0,0v1l0,0h-8l0,0V277L216,277z"/>
				</g>
			</g>
		</g>
		<g>
			<g id="Si7gusxam1nx_8_" transform="matrix(1,0,0,1,0,0)">
				<g>
					<path d="M247,17h8l0,0v1l0,0h-8l0,0V17L247,17z"/>
				</g>
			</g>
		</g>
		<g>
			<g id="Si7gusxam1nx_9_" transform="matrix(1,0,0,1,0,0)">
				<g>
					<path d="M-9,17h8l0,0v1l0,0h-8l0,0V17L-9,17z"/>
				</g>
			</g>
		</g>
		<g>
			<g id="Si7gusxam1nx_10_" transform="matrix(1,0,0,1,0,0)">
				<g>
					<path d="M-9,273h8l0,0v1l0,0h-8l0,0V273L-9,273z"/>
				</g>
			</g>
		</g>
		<g>
			<g id="Si7gusxam1nx_11_" transform="matrix(1,0,0,1,0,0)">
				<g>
					<path d="M247,273h8l0,0v1l0,0h-8l0,0V273L247,273z"/>
				</g>
			</g>
		</g>
		<g>
			<g id="Si7gusxam1nx_12_" transform="matrix(1,0,0,1,0,0)">
				<g>
					<path d="M-9,273h8l0,0v1l0,0h-8l0,0V273L-9,273z"/>
				</g>
			</g>
		</g>
		<g>
			<g id="Si7gusxam1ny_20_" transform="matrix(1,0,0,1,0,0)">
				<g>
					<path d="M19,42h8l0,0v1l0,0h-8l0,0V42L19,42z"/>
				</g>
			</g>
		</g>
		<g>
			<g id="Si7gusxam1ny_21_" transform="matrix(1,0,0,1,0,0)">
				<g>
					<path d="M275,42h8l0,0v1l0,0h-8l0,0V42L275,42z"/>
				</g>
			</g>
		</g>
		<g>
			<g id="Si7gusxam1ny_22_" transform="matrix(1,0,0,1,0,0)">
				<g>
					<path d="M32,33h8l0,0v1l0,0h-8l0,0V33L32,33z"/>
				</g>
			</g>
		</g>
		<g>
			<g id="Si7gusxam1ny_23_" transform="matrix(1,0,0,1,0,0)">
				<g>
					<path d="M288,33h8l0,0v1l0,0h-8l0,0V33L288,33z"/>
				</g>
			</g>
		</g>
		<g>
			<g id="Si7gusxam1ny_24_" transform="matrix(1,0,0,1,0,0)">
				<g>
					<path d="M288,289h8l0,0v1l0,0h-8l0,0V289L288,289z"/>
				</g>
			</g>
		</g>
		<g>
			<g id="Si7gusxam1ny_25_" transform="matrix(1,0,0,1,0,0)">
				<g>
					<path d="M32,289h8l0,0v1l0,0h-8l0,0V289L32,289z"/>
				</g>
			</g>
		</g>
		<g>
			<g id="Si7gusxam1ny_26_" transform="matrix(1,0,0,1,0,0)">
				<g>
					<path d="M288,289h8l0,0v1l0,0h-8l0,0V289L288,289z"/>
				</g>
			</g>
		</g>
		<g>
			<g id="Si7gusxam1nx_13_" transform="matrix(1,0,0,1,0,0)">
				<g>
					<path d="M51,36h8l0,0v1l0,0h-8l0,0V36L51,36z"/>
				</g>
			</g>
		</g>
		<g>
			<g id="Si7gusxam1nx_14_" transform="matrix(1,0,0,1,0,0)">
				<g>
					<path d="M51,292h8l0,0v1l0,0h-8l0,0V292L51,292z"/>
				</g>
			</g>
		</g>
		<g>
			<g id="Si7gusxam1ny_27_" transform="matrix(1,0,0,1,0,0)">
				<g>
					<path d="M83,44h8l0,0v1l0,0h-8l0,0V44L83,44z"/>
				</g>
			</g>
		</g>
		<g>
			<g id="Si7gusxam1ny_28_" transform="matrix(1,0,0,1,0,0)">
				<g>
					<path d="M98,35h8l0,0v1l0,0h-8l0,0V35L98,35z"/>
				</g>
			</g>
		</g>
		<g>
			<g id="Si7gusxam1ny_29_" transform="matrix(1,0,0,1,0,0)">
				<g>
					<path d="M98,291h8l0,0v1l0,0h-8l0,0V291L98,291z"/>
				</g>
			</g>
		</g>
		<g>
			<g id="Si7gusxam1nx_15_" transform="matrix(1,0,0,1,0,0)">
				<g>
					<path d="M114,38h8l0,0v1l0,0h-8l0,0V38L114,38z"/>
				</g>
			</g>
		</g>
		<g>
			<g id="Si7gusxam1nx_16_" transform="matrix(1,0,0,1,0,0)">
				<g>
					<path d="M114,294h8l0,0v1l0,0h-8l0,0V294L114,294z"/>
				</g>
			</g>
		</g>
		<g>
			<g id="Si7gusxam1nx_17_" transform="matrix(1,0,0,1,0,0)">
				<g>
					<path d="M132,36h8l0,0v1l0,0h-8l0,0V36L132,36z"/>
				</g>
			</g>
		</g>
		<g>
			<g id="Si7gusxam1nx_18_" transform="matrix(1,0,0,1,0,0)">
				<g>
					<path d="M132,292h8l0,0v1l0,0h-8l0,0V292L132,292z"/>
				</g>
			</g>
		</g>
		<g>
			<g id="Si7gusxam1ny_30_" transform="matrix(1,0,0,1,0,0)">
				<g>
					<path d="M158,32h8l0,0v1l0,0h-8l0,0V32L158,32z"/>
				</g>
			</g>
		</g>
		<g>
			<g id="Si7gusxam1ny_31_" transform="matrix(1,0,0,1,0,0)">
				<g>
					<path d="M158,288h8l0,0v1l0,0h-8l0,0V288L158,288z"/>
				</g>
			</g>
		</g>
		<g>
			<g id="Si7gusxam1nx_19_" transform="matrix(1,0,0,1,0,0)">
				<g>
					<path d="M187,37h8l0,0v1l0,0h-8l0,0V37L187,37z"/>
				</g>
			</g>
		</g>
		<g>
			<g id="Si7gusxam1nx_20_" transform="matrix(1,0,0,1,0,0)">
				<g>
					<path d="M187,293h8l0,0v1l0,0h-8l0,0V293L187,293z"/>
				</g>
			</g>
		</g>
		<g>
			<g id="Si7gusxam1nx_21_" transform="matrix(1,0,0,1,0,0)">
				<g>
					<path d="M215,53h8l0,0v1l0,0h-8l0,0V53L215,53z"/>
				</g>
			</g>
		</g>
		<g>
			<g id="Si7gusxam1nx_22_" transform="matrix(1,0,0,1,0,0)">
				<g>
					<path d="M222,37h8l0,0v1l0,0h-8l0,0V37L222,37z"/>
				</g>
			</g>
		</g>
		<g>
			<g id="Si7gusxam1nx_23_" transform="matrix(1,0,0,1,0,0)">
				<g>
					<path d="M222,293h8l0,0v1l0,0h-8l0,0V293L222,293z"/>
				</g>
			</g>
		</g>
		<g>
			<g id="Si7gusxam1ny_32_" transform="matrix(1,0,0,1,0,0)">
				<g>
					<path d="M245,41h8l0,0v1l0,0h-8l0,0V41L245,41z"/>
				</g>
			</g>
		</g>
		<g>
			<g id="Si7gusxam1ny_33_" transform="matrix(1,0,0,1,0,0)">
				<g>
					<path d="M-11,41h8l0,0v1l0,0h-8l0,0V41L-11,41z"/>
				</g>
			</g>
		</g>
		<g>
			<g id="Si7gusxam1nx_24_" transform="matrix(1,0,0,1,0,0)">
				<g>
					<path d="M16,61h8l0,0v1l0,0h-8l0,0V61L16,61z"/>
				</g>
			</g>
		</g>
		<g>
			<g id="Si7gusxam1nx_25_" transform="matrix(1,0,0,1,0,0)">
				<g>
					<path d="M272,61h8l0,0v1l0,0h-8l0,0V61L272,61z"/>
				</g>
			</g>
		</g>
		<g>
			<g id="Si7gusxam1nx_26_" transform="matrix(1,0,0,1,0,0)">
				<g>
					<path d="M36,64h8l0,0v1l0,0h-8l0,0V64L36,64z"/>
				</g>
			</g>
		</g>
		<g>
			<g id="Si7gusxam1ny_34_" transform="matrix(1,0,0,1,0,0)">
				<g>
					<path d="M54,55h8l0,0v1l0,0h-8l0,0V55L54,55z"/>
				</g>
			</g>
		</g>
		<g>
			<g id="Si7gusxam1ny_35_" transform="matrix(1,0,0,1,0,0)">
				<g>
					<path d="M74,58h8l0,0v1l0,0h-8l0,0V58L74,58z"/>
				</g>
			</g>
		</g>
		<g>
			<g id="Si7gusxam1ny_36_" transform="matrix(1,0,0,1,0,0)">
				<g>
					<path d="M100,67h8l0,0v1l0,0h-8l0,0V67L100,67z"/>
				</g>
			</g>
		</g>
		<g>
			<g id="Si7gusxam1nx_27_" transform="matrix(1,0,0,1,0,0)">
				<g>
					<path d="M119,64h8l0,0v1l0,0h-8l0,0V64L119,64z"/>
				</g>
			</g>
		</g>
		<g>
			<g id="Si7gusxam1ny_37_" transform="matrix(1,0,0,1,0,0)">
				<g>
					<path d="M139,58h8l0,0v1l0,0h-8l0,0V58L139,58z"/>
				</g>
			</g>
		</g>
		<g>
			<g id="Si7gusxam1ny_38_" transform="matrix(1,0,0,1,0,0)">
				<g>
					<path d="M161,52h8l0,0v1l0,0h-8l0,0V52L161,52z"/>
				</g>
			</g>
		</g>
		<g>
			<g id="Si7gusxam1nx_28_" transform="matrix(1,0,0,1,0,0)">
				<g>
					<path d="M188,70h8l0,0v1l0,0h-8l0,0V70L188,70z"/>
				</g>
			</g>
		</g>
		<g>
			<g id="Si7gusxam1nx_29_" transform="matrix(1,0,0,1,0,0)">
				<g>
					<path d="M193,54h8l0,0v1l0,0h-8l0,0V54L193,54z"/>
				</g>
			</g>
		</g>
		<g>
			<g id="Si7gusxam1nx_30_" transform="matrix(1,0,0,1,0,0)">
				<g>
					<path d="M226,64h8l0,0v1l0,0h-8l0,0V64L226,64z"/>
				</g>
			</g>
		</g>
		<g>
			<g id="Si7gusxam1ny_39_" transform="matrix(1,0,0,1,0,0)">
				<g>
					<path d="M247,58h8l0,0v1l0,0h-8l0,0V58L247,58z"/>
				</g>
			</g>
		</g>
		<g>
			<g id="Si7gusxam1ny_40_" transform="matrix(1,0,0,1,0,0)">
				<g>
					<path d="M-9,58h8l0,0v1l0,0h-8l0,0V58L-9,58z"/>
				</g>
			</g>
		</g>
		<g>
			<g id="Si7gusxam1nx_31_" transform="matrix(1,0,0,1,0,0)">
				<g>
					<path d="M8,78h8l0,0v1l0,0H8l0,0V78L8,78z"/>
				</g>
			</g>
		</g>
		<g>
			<g id="Si7gusxam1nx_32_" transform="matrix(1,0,0,1,0,0)">
				<g>
					<path d="M264,78h8l0,0v1l0,0h-8l0,0V78L264,78z"/>
				</g>
			</g>
		</g>
		<g>
			<g id="Si7gusxam1nx_33_" transform="matrix(1,0,0,1,0,0)">
				<g>
					<path d="M40,83h8l0,0v1l0,0h-8l0,0V83L40,83z"/>
				</g>
			</g>
		</g>
		<g>
			<g id="Si7gusxam1nx_34_" transform="matrix(1,0,0,1,0,0)">
				<g>
					<path d="M59,87h8l0,0v1l0,0h-8l0,0V87L59,87z"/>
				</g>
			</g>
		</g>
		<g>
			<g id="Si7gusxam1ny_41_" transform="matrix(1,0,0,1,0,0)">
				<g>
					<path d="M72,81h8l0,0v1l0,0h-8l0,0V81L72,81z"/>
				</g>
			</g>
		</g>
		<g>
			<g id="Si7gusxam1nx_35_" transform="matrix(1,0,0,1,0,0)">
				<g>
					<path d="M93,82h8l0,0v1l0,0h-8l0,0V82L93,82z"/>
				</g>
			</g>
		</g>
		<g>
			<g id="Si7gusxam1nx_36_" transform="matrix(1,0,0,1,0,0)">
				<g>
					<path d="M125,87h8l0,0v1l0,0h-8l0,0V87L125,87z"/>
				</g>
			</g>
		</g>
		<g>
			<g id="Si7gusxam1nx_37_" transform="matrix(1,0,0,1,0,0)">
				<g>
					<path d="M144,85h8l0,0v1l0,0h-8l0,0V85L144,85z"/>
				</g>
			</g>
		</g>
		<g>
			<g id="Si7gusxam1ny_42_" transform="matrix(1,0,0,1,0,0)">
				<g>
					<path d="M160,83h8l0,0v1l0,0h-8l0,0V83L160,83z"/>
				</g>
			</g>
		</g>
		<g>
			<g id="Si7gusxam1nx_38_" transform="matrix(1,0,0,1,0,0)">
				<g>
					<path d="M175,80h8l0,0v1l0,0h-8l0,0V80L175,80z"/>
				</g>
			</g>
		</g>
		<g>
			<g id="Si7gusxam1ny_43_" transform="matrix(1,0,0,1,0,0)">
				<g>
					<path d="M209,82h8l0,0v1l0,0h-8l0,0V82L209,82z"/>
				</g>
			</g>
		</g>
		<g>
			<g id="Si7gusxam1nx_39_" transform="matrix(1,0,0,1,0,0)">
				<g>
					<path d="M229,82h8l0,0v1l0,0h-8l0,0V82L229,82z"/>
				</g>
			</g>
		</g>
		<g>
			<g id="Si7gusxam1nx_40_" transform="matrix(1,0,0,1,0,0)">
				<g>
					<path d="M-27,82h8l0,0v1l0,0h-8l0,0V82L-27,82z"/>
				</g>
			</g>
		</g>
		<g>
			<g id="Si7gusxam1ny_44_" transform="matrix(1,0,0,1,0,0)">
				<g>
					<path d="M251,85h8l0,0v1l0,0h-8l0,0V85L251,85z"/>
				</g>
			</g>
		</g>
		<g>
			<g id="Si7gusxam1ny_45_" transform="matrix(1,0,0,1,0,0)">
				<g>
					<path d="M-5,85h8l0,0v1l0,0h-8l0,0V85L-5,85z"/>
				</g>
			</g>
		</g>
		<g>
			<g id="Si7gusxam1ny_46_" transform="matrix(1,0,0,1,0,0)">
				<g>
					<path d="M5,101h8l0,0v1l0,0H5l0,0V101L5,101z"/>
				</g>
			</g>
		</g>
		<g>
			<g id="Si7gusxam1ny_47_" transform="matrix(1,0,0,1,0,0)">
				<g>
					<path d="M261,101h8l0,0v1l0,0h-8l0,0V101L261,101z"/>
				</g>
			</g>
		</g>
		<g>
			<g id="Si7gusxam1ny_48_" transform="matrix(1,0,0,1,0,0)">
				<g>
					<path d="M28,95h8l0,0v1l0,0h-8l0,0V95L28,95z"/>
				</g>
			</g>
		</g>
		<g>
			<g id="Si7gusxam1ny_49_" transform="matrix(1,0,0,1,0,0)">
				<g>
					<path d="M284,95h8l0,0v1l0,0h-8l0,0V95L284,95z"/>
				</g>
			</g>
		</g>
		<g>
			<g id="Si7gusxam1ny_50_" transform="matrix(1,0,0,1,0,0)">
				<g>
					<path d="M51,109h8l0,0v1l0,0h-8l0,0V109L51,109z"/>
				</g>
			</g>
		</g>
		<g>
			<g id="Si7gusxam1ny_51_" transform="matrix(1,0,0,1,0,0)">
				<g>
					<path d="M82,103h8l0,0v1l0,0h-8l0,0V103L82,103z"/>
				</g>
			</g>
		</g>
		<g>
			<g id="Si7gusxam1nx_41_" transform="matrix(1,0,0,1,0,0)">
				<g>
					<path d="M99,110h8l0,0v1l0,0h-8l0,0V110L99,110z"/>
				</g>
			</g>
		</g>
		<g>
			<g id="Si7gusxam1nx_42_" transform="matrix(1,0,0,1,0,0)">
				<g>
					<path d="M113,96h8l0,0v1l0,0h-8l0,0V96L113,96z"/>
				</g>
			</g>
		</g>
		<g>
			<g id="Si7gusxam1ny_52_" transform="matrix(1,0,0,1,0,0)">
				<g>
					<path d="M140,107h8l0,0v1l0,0h-8l0,0V107L140,107z"/>
				</g>
			</g>
		</g>
		<g>
			<g id="Si7gusxam1nx_43_" transform="matrix(1,0,0,1,0,0)">
				<g>
					<path d="M172,112h8l0,0v1l0,0h-8l0,0V112L172,112z"/>
				</g>
			</g>
		</g>
		<g>
			<g id="Si7gusxam1ny_53_" transform="matrix(1,0,0,1,0,0)">
				<g>
					<path d="M186,101h8l0,0v1l0,0h-8l0,0V101L186,101z"/>
				</g>
			</g>
		</g>
		<g>
			<g id="Si7gusxam1nx_44_" transform="matrix(1,0,0,1,0,0)">
				<g>
					<path d="M201,99h8l0,0v1l0,0h-8l0,0V99L201,99z"/>
				</g>
			</g>
		</g>
		<g>
			<g id="Si7gusxam1nx_45_" transform="matrix(1,0,0,1,0,0)">
				<g>
					<path d="M219,111h8l0,0v1l0,0h-8l0,0V111L219,111z"/>
				</g>
			</g>
		</g>
		<g>
			<g id="Si7gusxam1ny_54_" transform="matrix(1,0,0,1,0,0)">
				<g>
					<path d="M233,102h8l0,0v1l0,0h-8l0,0V102L233,102z"/>
				</g>
			</g>
		</g>
		<g>
			<g id="Si7gusxam1ny_55_" transform="matrix(1,0,0,1,0,0)">
				<g>
					<path d="M-23,102h8l0,0v1l0,0h-8l0,0V102L-23,102z"/>
				</g>
			</g>
		</g>
		<g>
			<g id="Si7gusxam1ny_56_" transform="matrix(1,0,0,1,0,0)">
				<g>
					<path d="M5,118h8l0,0v1l0,0H5l0,0V118L5,118z"/>
				</g>
			</g>
		</g>
		<g>
			<g id="Si7gusxam1ny_57_" transform="matrix(1,0,0,1,0,0)">
				<g>
					<path d="M261,118h8l0,0v1l0,0h-8l0,0V118L261,118z"/>
				</g>
			</g>
		</g>
		<g>
			<g id="Si7gusxam1nx_46_" transform="matrix(1,0,0,1,0,0)">
				<g>
					<path d="M29,121h8l0,0v1l0,0h-8l0,0V121L29,121z"/>
				</g>
			</g>
		</g>
		<g>
			<g id="Si7gusxam1nx_47_" transform="matrix(1,0,0,1,0,0)">
				<g>
					<path d="M285,121h8l0,0v1l0,0h-8l0,0V121L285,121z"/>
				</g>
			</g>
		</g>
		<g>
			<g id="Si7gusxam1ny_58_" transform="matrix(1,0,0,1,0,0)">
				<g>
					<path d="M61,125h8l0,0v1l0,0h-8l0,0V125L61,125z"/>
				</g>
			</g>
		</g>
		<g>
			<g id="Si7gusxam1nx_48_" transform="matrix(1,0,0,1,0,0)">
				<g>
					<path d="M79,122h8l0,0v1l0,0h-8l0,0V122L79,122z"/>
				</g>
			</g>
		</g>
		<g>
			<g id="Si7gusxam1ny_59_" transform="matrix(1,0,0,1,0,0)">
				<g>
					<path d="M111,128h8l0,0v1l0,0h-8l0,0V128L111,128z"/>
				</g>
			</g>
		</g>
		<g>
			<g id="Si7gusxam1nx_49_" transform="matrix(1,0,0,1,0,0)">
				<g>
					<path d="M125,119h8l0,0v1l0,0h-8l0,0V119L125,119z"/>
				</g>
			</g>
		</g>
		<g>
			<g id="Si7gusxam1nx_50_" transform="matrix(1,0,0,1,0,0)">
				<g>
					<path d="M142,124h8l0,0v1l0,0h-8l0,0V124L142,124z"/>
				</g>
			</g>
		</g>
		<g>
			<g id="Si7gusxam1nx_51_" transform="matrix(1,0,0,1,0,0)">
				<g>
					<path d="M157,114h8l0,0v1l0,0h-8l0,0V114L157,114z"/>
				</g>
			</g>
		</g>
		<g>
			<g id="Si7gusxam1ny_60_" transform="matrix(1,0,0,1,0,0)">
				<g>
					<path d="M183,126h8l0,0v1l0,0h-8l0,0V126L183,126z"/>
				</g>
			</g>
		</g>
		<g>
			<g id="Si7gusxam1nx_52_" transform="matrix(1,0,0,1,0,0)">
				<g>
					<path d="M197,132h8l0,0v1l0,0h-8l0,0V132L197,132z"/>
				</g>
			</g>
		</g>
		<g>
			<g id="Si7gusxam1nx_53_" transform="matrix(1,0,0,1,0,0)">
				<g>
					<path d="M215,129h8l0,0v1l0,0h-8l0,0V129L215,129z"/>
				</g>
			</g>
		</g>
		<g>
			<g id="Si7gusxam1ny_61_" transform="matrix(1,0,0,1,0,0)">
				<g>
					<path d="M246,129h8l0,0v1l0,0h-8l0,0V129L246,129z"/>
				</g>
			</g>
		</g>
		<g>
			<g id="Si7gusxam1ny_62_" transform="matrix(1,0,0,1,0,0)">
				<g>
					<path d="M-10,129h8l0,0v1l0,0h-8l0,0V129L-10,129z"/>
				</g>
			</g>
		</g>
		<g>
			<g id="Si7gusxam1nx_54_" transform="matrix(1,0,0,1,0,0)">
				<g>
					<path d="M14,148h8l0,0v1l0,0h-8l0,0V148L14,148z"/>
				</g>
			</g>
		</g>
		<g>
			<g id="Si7gusxam1nx_55_" transform="matrix(1,0,0,1,0,0)">
				<g>
					<path d="M270,148h8l0,0v1l0,0h-8l0,0V148L270,148z"/>
				</g>
			</g>
		</g>
		<g>
			<g id="Si7gusxam1ny_63_" transform="matrix(1,0,0,1,0,0)">
				<g>
					<path d="M31,136h8l0,0v1l0,0h-8l0,0V136L31,136z"/>
				</g>
			</g>
		</g>
		<g>
			<g id="Si7gusxam1ny_64_" transform="matrix(1,0,0,1,0,0)">
				<g>
					<path d="M287,136h8l0,0v1l0,0h-8l0,0V136L287,136z"/>
				</g>
			</g>
		</g>
		<g>
			<g id="Si7gusxam1ny_65_" transform="matrix(1,0,0,1,0,0)">
				<g>
					<path d="M54,141h8l0,0v1l0,0h-8l0,0V141L54,141z"/>
				</g>
			</g>
		</g>
		<g>
			<g id="Si7gusxam1nx_56_" transform="matrix(1,0,0,1,0,0)">
				<g>
					<path d="M84,146h8l0,0v1l0,0h-8l0,0V146L84,146z"/>
				</g>
			</g>
		</g>
		<g>
			<g id="Si7gusxam1ny_66_" transform="matrix(1,0,0,1,0,0)">
				<g>
					<path d="M101,142h8l0,0v1l0,0h-8l0,0V142L101,142z"/>
				</g>
			</g>
		</g>
		<g>
			<g id="Si7gusxam1ny_67_" transform="matrix(1,0,0,1,0,0)">
				<g>
					<path d="M117,150h8l0,0v1l0,0h-8l0,0V150L117,150z"/>
				</g>
			</g>
		</g>
		<g>
			<g id="Si7gusxam1nx_57_" transform="matrix(1,0,0,1,0,0)">
				<g>
					<path d="M136,148h8l0,0v1l0,0h-8l0,0V148L136,148z"/>
				</g>
			</g>
		</g>
		<g>
			<g id="Si7gusxam1nx_58_" transform="matrix(1,0,0,1,0,0)">
				<g>
					<path d="M151,146h8l0,0v1l0,0h-8l0,0V146L151,146z"/>
				</g>
			</g>
		</g>
		<g>
			<g id="Si7gusxam1nx_59_" transform="matrix(1,0,0,1,0,0)">
				<g>
					<path d="M168,144h8l0,0v1l0,0h-8l0,0V144L168,144z"/>
				</g>
			</g>
		</g>
		<g>
			<g id="Si7gusxam1nx_60_" transform="matrix(1,0,0,1,0,0)">
				<g>
					<path d="M197,155h8l0,0v1l0,0h-8l0,0V155L197,155z"/>
				</g>
			</g>
		</g>
		<g>
			<g id="Si7gusxam1ny_68_" transform="matrix(1,0,0,1,0,0)">
				<g>
					<path d="M218,146h8l0,0v1l0,0h-8l0,0V146L218,146z"/>
				</g>
			</g>
		</g>
		<g>
			<g id="Si7gusxam1ny_69_" transform="matrix(1,0,0,1,0,0)">
				<g>
					<path d="M243,144h8l0,0v1l0,0h-8l0,0V144L243,144z"/>
				</g>
			</g>
		</g>
		<g>
			<g id="Si7gusxam1ny_70_" transform="matrix(1,0,0,1,0,0)">
				<g>
					<path d="M-13,144h8l0,0v1l0,0h-8l0,0V144L-13,144z"/>
				</g>
			</g>
		</g>
		<g>
			<g id="Si7gusxam1ny_71_" transform="matrix(1,0,0,1,0,0)">
				<g>
					<path d="M13,163h8l0,0v1l0,0h-8l0,0V163L13,163z"/>
				</g>
			</g>
		</g>
		<g>
			<g id="Si7gusxam1ny_72_" transform="matrix(1,0,0,1,0,0)">
				<g>
					<path d="M269,163h8l0,0v1l0,0h-8l0,0V163L269,163z"/>
				</g>
			</g>
		</g>
		<g>
			<g id="Si7gusxam1ny_73_" transform="matrix(1,0,0,1,0,0)">
				<g>
					<path d="M38,169h8l0,0v1l0,0h-8l0,0V169L38,169z"/>
				</g>
			</g>
		</g>
		<g>
			<g id="Si7gusxam1nx_61_" transform="matrix(1,0,0,1,0,0)">
				<g>
					<path d="M45,156h8l0,0v1l0,0h-8l0,0V156L45,156z"/>
				</g>
			</g>
		</g>
		<g>
			<g id="Si7gusxam1nx_62_" transform="matrix(1,0,0,1,0,0)">
				<g>
					<path d="M75,160h8l0,0v1l0,0h-8l0,0V160L75,160z"/>
				</g>
			</g>
		</g>
		<g>
			<g id="Si7gusxam1nx_63_" transform="matrix(1,0,0,1,0,0)">
				<g>
					<path d="M100,174h8l0,0v1l0,0h-8l0,0V174L100,174z"/>
				</g>
			</g>
		</g>
		<g>
			<g id="Si7gusxam1nx_64_" transform="matrix(1,0,0,1,0,0)">
				<g>
					<path d="M116,171h8l0,0v1l0,0h-8l0,0V171L116,171z"/>
				</g>
			</g>
		</g>
		<g>
			<g id="Si7gusxam1nx_65_" transform="matrix(1,0,0,1,0,0)">
				<g>
					<path d="M147,178h8l0,0v1l0,0h-8l0,0V178L147,178z"/>
				</g>
			</g>
		</g>
		<g>
			<g id="Si7gusxam1nx_66_" transform="matrix(1,0,0,1,0,0)">
				<g>
					<path d="M164,175h8l0,0v1l0,0h-8l0,0V175L164,175z"/>
				</g>
			</g>
		</g>
		<g>
			<g id="Si7gusxam1ny_74_" transform="matrix(1,0,0,1,0,0)">
				<g>
					<path d="M178,163h8l0,0v1l0,0h-8l0,0V163L178,163z"/>
				</g>
			</g>
		</g>
		<g>
			<g id="Si7gusxam1nx_67_" transform="matrix(1,0,0,1,0,0)">
				<g>
					<path d="M208,172h8l0,0v1l0,0h-8l0,0V172L208,172z"/>
				</g>
			</g>
		</g>
		<g>
			<g id="Si7gusxam1ny_75_" transform="matrix(1,0,0,1,0,0)">
				<g>
					<path d="M227,167h8l0,0v1l0,0h-8l0,0V167L227,167z"/>
				</g>
			</g>
		</g>
		<g>
			<g id="Si7gusxam1ny_76_" transform="matrix(1,0,0,1,0,0)">
				<g>
					<path d="M-29,167h8l0,0v1l0,0h-8l0,0V167L-29,167z"/>
				</g>
			</g>
		</g>
		<g>
			<g id="Si7gusxam1ny_77_" transform="matrix(1,0,0,1,0,0)">
				<g>
					<path d="M243,166h8l0,0v1l0,0h-8l0,0V166L243,166z"/>
				</g>
			</g>
		</g>
		<g>
			<g id="Si7gusxam1ny_78_" transform="matrix(1,0,0,1,0,0)">
				<g>
					<path d="M-13,166h8l0,0v1l0,0h-8l0,0V166L-13,166z"/>
				</g>
			</g>
		</g>
		<g>
			<g id="Si7gusxam1nx_68_" transform="matrix(1,0,0,1,0,0)">
				<g>
					<path d="M14,183h8l0,0v1l0,0h-8l0,0V183L14,183z"/>
				</g>
			</g>
		</g>
		<g>
			<g id="Si7gusxam1nx_69_" transform="matrix(1,0,0,1,0,0)">
				<g>
					<path d="M270,183h8l0,0v1l0,0h-8l0,0V183L270,183z"/>
				</g>
			</g>
		</g>
		<g>
			<g id="Si7gusxam1nx_70_" transform="matrix(1,0,0,1,0,0)">
				<g>
					<path d="M31,198h8l0,0v1l0,0h-8l0,0V198L31,198z"/>
				</g>
			</g>
		</g>
		<g>
			<g id="Si7gusxam1nx_71_" transform="matrix(1,0,0,1,0,0)">
				<g>
					<path d="M287,198h8l0,0v1l0,0h-8l0,0V198L287,198z"/>
				</g>
			</g>
		</g>
		<g>
			<g id="Si7gusxam1nx_72_" transform="matrix(1,0,0,1,0,0)">
				<g>
					<path d="M57,187h8l0,0v1l0,0h-8l0,0V187L57,187z"/>
				</g>
			</g>
		</g>
		<g>
			<g id="Si7gusxam1ny_79_" transform="matrix(1,0,0,1,0,0)">
				<g>
					<path d="M70,175h8l0,0v1l0,0h-8l0,0V175L70,175z"/>
				</g>
			</g>
		</g>
		<g>
			<g id="Si7gusxam1nx_73_" transform="matrix(1,0,0,1,0,0)">
				<g>
					<path d="M89,188h8l0,0v1l0,0h-8l0,0V188L89,188z"/>
				</g>
			</g>
		</g>
		<g>
			<g id="Si7gusxam1nx_74_" transform="matrix(1,0,0,1,0,0)">
				<g>
					<path d="M122,197h8l0,0v1l0,0h-8l0,0V197L122,197z"/>
				</g>
			</g>
		</g>
		<g>
			<g id="Si7gusxam1nx_75_" transform="matrix(1,0,0,1,0,0)">
				<g>
					<path d="M132,178h8l0,0v1l0,0h-8l0,0V178L132,178z"/>
				</g>
			</g>
		</g>
		<g>
			<g id="Si7gusxam1nx_76_" transform="matrix(1,0,0,1,0,0)">
				<g>
					<path d="M154,202h8l0,0v1l0,0h-8l0,0V202L154,202z"/>
				</g>
			</g>
		</g>
		<g>
			<g id="Si7gusxam1ny_80_" transform="matrix(1,0,0,1,0,0)">
				<g>
					<path d="M182,189h8l0,0v1l0,0h-8l0,0V189L182,189z"/>
				</g>
			</g>
		</g>
		<g>
			<g id="Si7gusxam1nx_77_" transform="matrix(1,0,0,1,0,0)">
				<g>
					<path d="M201,186h8l0,0v1l0,0h-8l0,0V186L201,186z"/>
				</g>
			</g>
		</g>
		<g>
			<g id="Si7gusxam1ny_81_" transform="matrix(1,0,0,1,0,0)">
				<g>
					<path d="M236,188h8l0,0v1l0,0h-8l0,0V188L236,188z"/>
				</g>
			</g>
		</g>
		<g>
			<g id="Si7gusxam1ny_82_" transform="matrix(1,0,0,1,0,0)">
				<g>
					<path d="M-20,188h8l0,0v1l0,0h-8l0,0V188L-20,188z"/>
				</g>
			</g>
		</g>
		<g>
			<g id="Si7gusxam1nx_78_" transform="matrix(1,0,0,1,0,0)">
				<g>
					<path d="M256,192h8l0,0v1l0,0h-8l0,0V192L256,192z"/>
				</g>
			</g>
		</g>
		<g>
			<g id="Si7gusxam1nx_79_" transform="matrix(1,0,0,1,0,0)">
				<g>
					<path d="M0,192h8l0,0v1l0,0H0l0,0V192L0,192z"/>
				</g>
			</g>
		</g>
		<g>
			<g id="Si7gusxam1ny_83_" transform="matrix(1,0,0,1,0,0)">
				<g>
					<path d="M2,212h8l0,0v1l0,0H2l0,0V212L2,212z"/>
				</g>
			</g>
		</g>
		<g>
			<g id="Si7gusxam1ny_84_" transform="matrix(1,0,0,1,0,0)">
				<g>
					<path d="M258,212h8l0,0v1l0,0h-8l0,0V212L258,212z"/>
				</g>
			</g>
		</g>
		<g>
			<g id="Si7gusxam1nx_80_" transform="matrix(1,0,0,1,0,0)">
				<g>
					<path d="M26,212h8l0,0v1l0,0h-8l0,0V212L26,212z"/>
				</g>
			</g>
		</g>
		<g>
			<g id="Si7gusxam1nx_81_" transform="matrix(1,0,0,1,0,0)">
				<g>
					<path d="M282,212h8l0,0v1l0,0h-8l0,0V212L282,212z"/>
				</g>
			</g>
		</g>
		<g>
			<g id="Si7gusxam1ny_85_" transform="matrix(1,0,0,1,0,0)">
				<g>
					<path d="M54,203h8l0,0v1l0,0h-8l0,0V203L54,203z"/>
				</g>
			</g>
		</g>
		<g>
			<g id="Si7gusxam1ny_86_" transform="matrix(1,0,0,1,0,0)">
				<g>
					<path d="M91,221h8l0,0v1l0,0h-8l0,0V221L91,221z"/>
				</g>
			</g>
		</g>
		<g>
			<g id="Si7gusxam1ny_87_" transform="matrix(1,0,0,1,0,0)">
				<g>
					<path d="M86,203h8l0,0v1l0,0h-8l0,0V203L86,203z"/>
				</g>
			</g>
		</g>
		<g>
			<g id="Si7gusxam1nx_82_" transform="matrix(1,0,0,1,0,0)">
				<g>
					<path d="M111,204h8l0,0v1l0,0h-8l0,0V204L111,204z"/>
				</g>
			</g>
		</g>
		<g>
			<g id="Si7gusxam1ny_88_" transform="matrix(1,0,0,1,0,0)">
				<g>
					<path d="M139,210h8l0,0v1l0,0h-8l0,0V210L139,210z"/>
				</g>
			</g>
		</g>
		<g>
			<g id="Si7gusxam1ny_89_" transform="matrix(1,0,0,1,0,0)">
				<g>
					<path d="M168,207h8l0,0v1l0,0h-8l0,0V207L168,207z"/>
				</g>
			</g>
		</g>
		<g>
			<g id="Si7gusxam1nx_83_" transform="matrix(1,0,0,1,0,0)">
				<g>
					<path d="M185,214h8l0,0v1l0,0h-8l0,0V214L185,214z"/>
				</g>
			</g>
		</g>
		<g>
			<g id="Si7gusxam1nx_84_" transform="matrix(1,0,0,1,0,0)">
				<g>
					<path d="M208,204h8l0,0v1l0,0h-8l0,0V204L208,204z"/>
				</g>
			</g>
		</g>
		<g>
			<g id="Si7gusxam1ny_90_" transform="matrix(1,0,0,1,0,0)">
				<g>
					<path d="M227,205h8l0,0v1l0,0h-8l0,0V205L227,205z"/>
				</g>
			</g>
		</g>
		<g>
			<g id="Si7gusxam1ny_91_" transform="matrix(1,0,0,1,0,0)">
				<g>
					<path d="M-29,205h8l0,0v1l0,0h-8l0,0V205L-29,205z"/>
				</g>
			</g>
		</g>
		<g>
			<g id="Si7gusxam1nx_85_" transform="matrix(1,0,0,1,0,0)">
				<g>
					<path d="M243,219h8l0,0v1l0,0h-8l0,0V219L243,219z"/>
				</g>
			</g>
		</g>
		<g>
			<g id="Si7gusxam1nx_86_" transform="matrix(1,0,0,1,0,0)">
				<g>
					<path d="M-13,219h8l0,0v1l0,0h-8l0,0V219L-13,219z"/>
				</g>
			</g>
		</g>
		<g>
			<g id="Si7gusxam1nx_87_" transform="matrix(1,0,0,1,0,0)">
				<g>
					<path d="M10,240h8l0,0v1l0,0h-8l0,0V240L10,240z"/>
				</g>
			</g>
		</g>
		<g>
			<g id="Si7gusxam1nx_88_" transform="matrix(1,0,0,1,0,0)">
				<g>
					<path d="M266,240h8l0,0v1l0,0h-8l0,0V240L266,240z"/>
				</g>
			</g>
		</g>
		<g>
			<g id="Si7gusxam1nx_89_" transform="matrix(1,0,0,1,0,0)">
				<g>
					<path d="M266-16h8l0,0v1l0,0h-8l0,0V-16L266-16z"/>
				</g>
			</g>
		</g>
		<g>
			<g id="Si7gusxam1nx_90_" transform="matrix(1,0,0,1,0,0)">
				<g>
					<path d="M10-16h8l0,0v1l0,0h-8l0,0V-16L10-16z"/>
				</g>
			</g>
		</g>
		<g>
			<g id="Si7gusxam1nx_91_" transform="matrix(1,0,0,1,0,0)">
				<g>
					<path d="M266-16h8l0,0v1l0,0h-8l0,0V-16L266-16z"/>
				</g>
			</g>
		</g>
		<g>
			<g id="Si7gusxam1nx_92_" transform="matrix(1,0,0,1,0,0)">
				<g>
					<path d="M29,230h8l0,0v1l0,0h-8l0,0V230L29,230z"/>
				</g>
			</g>
		</g>
		<g>
			<g id="Si7gusxam1nx_93_" transform="matrix(1,0,0,1,0,0)">
				<g>
					<path d="M285,230h8l0,0v1l0,0h-8l0,0V230L285,230z"/>
				</g>
			</g>
		</g>
		<g>
			<g id="Si7gusxam1nx_94_" transform="matrix(1,0,0,1,0,0)">
				<g>
					<path d="M59,219h8l0,0v1l0,0h-8l0,0V219L59,219z"/>
				</g>
			</g>
		</g>
		<g>
			<g id="Si7gusxam1ny_92_" transform="matrix(1,0,0,1,0,0)">
				<g>
					<path d="M72,230h8l0,0v1l0,0h-8l0,0V230L72,230z"/>
				</g>
			</g>
		</g>
		<g>
			<g id="Si7gusxam1ny_93_" transform="matrix(1,0,0,1,0,0)">
				<g>
					<path d="M103,235h8l0,0v1l0,0h-8l0,0V235L103,235z"/>
				</g>
			</g>
		</g>
		<g>
			<g id="Si7gusxam1ny_94_" transform="matrix(1,0,0,1,0,0)">
				<g>
					<path d="M103-21h8l0,0v1l0,0h-8l0,0V-21L103-21z"/>
				</g>
			</g>
		</g>
		<g>
			<g id="Si7gusxam1ny_95_" transform="matrix(1,0,0,1,0,0)">
				<g>
					<path d="M120,235h8l0,0v1l0,0h-8l0,0V235L120,235z"/>
				</g>
			</g>
		</g>
		<g>
			<g id="Si7gusxam1ny_96_" transform="matrix(1,0,0,1,0,0)">
				<g>
					<path d="M120-21h8l0,0v1l0,0h-8l0,0V-21L120-21z"/>
				</g>
			</g>
		</g>
		<g>
			<g id="Si7gusxam1ny_97_" transform="matrix(1,0,0,1,0,0)">
				<g>
					<path d="M134,227h8l0,0v1l0,0h-8l0,0V227L134,227z"/>
				</g>
			</g>
		</g>
		<g>
			<g id="Si7gusxam1ny_98_" transform="matrix(1,0,0,1,0,0)">
				<g>
					<path d="M162,232h8l0,0v1l0,0h-8l0,0V232L162,232z"/>
				</g>
			</g>
		</g>
		<g>
			<g id="Si7gusxam1ny_99_" transform="matrix(1,0,0,1,0,0)">
				<g>
					<path d="M189,230h8l0,0v1l0,0h-8l0,0V230L189,230z"/>
				</g>
			</g>
		</g>
		<g>
			<g id="Si7gusxam1ny_100_" transform="matrix(1,0,0,1,0,0)">
				<g>
					<path d="M211,233h8l0,0v1l0,0h-8l0,0V233L211,233z"/>
				</g>
			</g>
		</g>
		<g>
			<g id="Si7gusxam1ny_101_" transform="matrix(1,0,0,1,0,0)">
				<g>
					<path d="M211-23h8l0,0v1l0,0h-8l0,0V-23L211-23z"/>
				</g>
			</g>
		</g>
		<g>
			<g id="Si7gusxam1ny_102_" transform="matrix(1,0,0,1,0,0)">
				<g>
					<path d="M225,231h8l0,0v1l0,0h-8l0,0V231L225,231z"/>
				</g>
			</g>
		</g>
		<g>
			<g id="Si7gusxam1nx_95_" transform="matrix(1,0,0,1,0,0)">
				<g>
					<path d="M242,241h8l0,0v1l0,0h-8l0,0V241L242,241z"/>
				</g>
			</g>
		</g>
		<g>
			<g id="Si7gusxam1nx_96_" transform="matrix(1,0,0,1,0,0)">
				<g>
					<path d="M-14,241h8l0,0v1l0,0h-8l0,0V241L-14,241z"/>
				</g>
			</g>
		</g>
		<g>
			<g id="Si7gusxam1nx_97_" transform="matrix(1,0,0,1,0,0)">
				<g>
					<path d="M-14-15h8l0,0v1l0,0h-8l0,0V-15L-14-15z"/>
				</g>
			</g>
		</g>
		<g>
			<g id="Si7gusxam1nx_98_" transform="matrix(1,0,0,1,0,0)">
				<g>
					<path d="M242-15h8l0,0v1l0,0h-8l0,0V-15L242-15z"/>
				</g>
			</g>
		</g>
		<g>
			<g id="Si7gusxam1nx_99_" transform="matrix(1,0,0,1,0,0)">
				<g>
					<path d="M-14-15h8l0,0v1l0,0h-8l0,0V-15L-14-15z"/>
				</g>
			</g>
		</g>
		<g>
			<g id="Si7gusxam1ny_103_" transform="matrix(1,0,0,1,0,0)">
				<g>
					<path d="M17,260h8l0,0v1l0,0h-8l0,0V260L17,260z"/>
				</g>
			</g>
		</g>
		<g>
			<g id="Si7gusxam1ny_104_" transform="matrix(1,0,0,1,0,0)">
				<g>
					<path d="M273,260h8l0,0v1l0,0h-8l0,0V260L273,260z"/>
				</g>
			</g>
		</g>
		<g>
			<g id="Si7gusxam1ny_105_" transform="matrix(1,0,0,1,0,0)">
				<g>
					<path d="M273,4h8l0,0v1l0,0h-8l0,0V4L273,4z"/>
				</g>
			</g>
		</g>
		<g>
			<g id="Si7gusxam1ny_106_" transform="matrix(1,0,0,1,0,0)">
				<g>
					<path d="M17,4h8l0,0v1l0,0h-8l0,0V4L17,4z"/>
				</g>
			</g>
		</g>
		<g>
			<g id="Si7gusxam1ny_107_" transform="matrix(1,0,0,1,0,0)">
				<g>
					<path d="M273,4h8l0,0v1l0,0h-8l0,0V4L273,4z"/>
				</g>
			</g>
		</g>
		<g>
			<g id="Si7gusxam1nx_100_" transform="matrix(1,0,0,1,0,0)">
				<g>
					<path d="M42,240h8l0,0v1l0,0h-8l0,0V240L42,240z"/>
				</g>
			</g>
		</g>
		<g>
			<g id="Si7gusxam1nx_101_" transform="matrix(1,0,0,1,0,0)">
				<g>
					<path d="M42-16h8l0,0v1l0,0h-8l0,0V-16L42-16z"/>
				</g>
			</g>
		</g>
		<g>
			<g id="Si7gusxam1ny_108_" transform="matrix(1,0,0,1,0,0)">
				<g>
					<path d="M55,252h8l0,0v1l0,0h-8l0,0V252L55,252z"/>
				</g>
			</g>
		</g>
		<g>
			<g id="Si7gusxam1ny_109_" transform="matrix(1,0,0,1,0,0)">
				<g>
					<path d="M55-4h8l0,0v1l0,0h-8l0,0V-4L55-4z"/>
				</g>
			</g>
		</g>
		<g>
			<g id="Si7gusxam1nx_102_" transform="matrix(1,0,0,1,0,0)">
				<g>
					<path d="M73,248h8l0,0v1l0,0h-8l0,0V248L73,248z"/>
				</g>
			</g>
		</g>
		<g>
			<g id="Si7gusxam1nx_103_" transform="matrix(1,0,0,1,0,0)">
				<g>
					<path d="M73-8h8l0,0v1l0,0h-8l0,0V-8L73-8z"/>
				</g>
			</g>
		</g>
		<g>
			<g id="Si7gusxam1nx_104_" transform="matrix(1,0,0,1,0,0)">
				<g>
					<path d="M94,253h8l0,0v1l0,0h-8l0,0V253L94,253z"/>
				</g>
			</g>
		</g>
		<g>
			<g id="Si7gusxam1nx_105_" transform="matrix(1,0,0,1,0,0)">
				<g>
					<path d="M94-3h8l0,0v1l0,0h-8l0,0V-3L94-3z"/>
				</g>
			</g>
		</g>
		<g>
			<g id="Si7gusxam1ny_110_" transform="matrix(1,0,0,1,0,0)">
				<g>
					<path d="M126,258h8l0,0v1l0,0h-8l0,0V258L126,258z"/>
				</g>
			</g>
		</g>
		<g>
			<g id="Si7gusxam1ny_111_" transform="matrix(1,0,0,1,0,0)">
				<g>
					<path d="M126,2h8l0,0v1l0,0h-8l0,0V2L126,2z"/>
				</g>
			</g>
		</g>
		<g>
			<g id="Si7gusxam1ny_112_" transform="matrix(1,0,0,1,0,0)">
				<g>
					<path d="M143,258h8l0,0v1l0,0h-8l0,0V258L143,258z"/>
				</g>
			</g>
		</g>
		<g>
			<g id="Si7gusxam1ny_113_" transform="matrix(1,0,0,1,0,0)">
				<g>
					<path d="M143,2h8l0,0v1l0,0h-8l0,0V2L143,2z"/>
				</g>
			</g>
		</g>
		<g>
			<g id="Si7gusxam1nx_106_" transform="matrix(1,0,0,1,0,0)">
				<g>
					<path d="M156,247h8l0,0v1l0,0h-8l0,0V247L156,247z"/>
				</g>
			</g>
		</g>
		<g>
			<g id="Si7gusxam1nx_107_" transform="matrix(1,0,0,1,0,0)">
				<g>
					<path d="M156-9h8l0,0v1l0,0h-8l0,0V-9L156-9z"/>
				</g>
			</g>
		</g>
		<g>
			<g id="Si7gusxam1nx_108_" transform="matrix(1,0,0,1,0,0)">
				<g>
					<path d="M188,251h8l0,0v1l0,0h-8l0,0V251L188,251z"/>
				</g>
			</g>
		</g>
		<g>
			<g id="Si7gusxam1nx_109_" transform="matrix(1,0,0,1,0,0)">
				<g>
					<path d="M188-5h8l0,0v1l0,0h-8l0,0V-5L188-5z"/>
				</g>
			</g>
		</g>
		<g>
			<g id="Si7gusxam1ny_114_" transform="matrix(1,0,0,1,0,0)">
				<g>
					<path d="M206,257h8l0,0v1l0,0h-8l0,0V257L206,257z"/>
				</g>
			</g>
		</g>
		<g>
			<g id="Si7gusxam1ny_115_" transform="matrix(1,0,0,1,0,0)">
				<g>
					<path d="M206,1h8l0,0v1l0,0h-8l0,0V1L206,1z"/>
				</g>
			</g>
		</g>
		<g>
			<g id="Si7gusxam1nx_110_" transform="matrix(1,0,0,1,0,0)">
				<g>
					<path d="M225,261h8l0,0v1l0,0h-8l0,0V261L225,261z"/>
				</g>
			</g>
		</g>
		<g>
			<g id="Si7gusxam1nx_111_" transform="matrix(1,0,0,1,0,0)">
				<g>
					<path d="M225,5h8l0,0v1l0,0h-8l0,0V5L225,5z"/>
				</g>
			</g>
		</g>
		<g>
			<g id="Si7gusxam1nx_112_" transform="matrix(1,0,0,1,0,0)">
				<g>
					<path d="M250,256h8l0,0v1l0,0h-8l0,0V256L250,256z"/>
				</g>
			</g>
		</g>
		<g>
			<g id="Si7gusxam1nx_113_" transform="matrix(1,0,0,1,0,0)">
				<g>
					<path d="M-6,256h8l0,0v1l0,0h-8l0,0V256L-6,256z"/>
				</g>
			</g>
		</g>
		<g>
			<g id="Si7gusxam1nx_114_" transform="matrix(1,0,0,1,0,0)">
				<g>
					<path d="M-6,0h8l0,0v1l0,0h-8l0,0V0L-6,0z"/>
				</g>
			</g>
		</g>
		<g>
			<g id="Si7gusxam1nx_115_" transform="matrix(1,0,0,1,0,0)">
				<g>
					<path d="M250,0h8l0,0v1l0,0h-8l0,0V0L250,0z"/>
				</g>
			</g>
		</g>
		<g>
			<g id="Si7gusxam1nx_116_" transform="matrix(1,0,0,1,0,0)">
				<g>
					<path d="M-6,0h8l0,0v1l0,0h-8l0,0V0L-6,0z"/>
				</g>
			</g>
		</g>
	</g>
</g>
<desc>Created with Snap</desc>
</svg>
